<svg xmlns="http://www.w3.org/2000/svg" width="396" height="396" viewBox="0 0 396 396">
  <g id="Group_908" data-name="Group 908" transform="translate(-6993 -12811)">
    <g id="cEUR_Color_S_Circle" data-name="cEUR Color S Circle" transform="translate(6993 12811)">
      <circle id="Ellipse_388" data-name="Ellipse 388" cx="198" cy="198" r="198" fill="#51c7fc"/>
      <path id="Path_677" data-name="Path 677" d="M392.228,321.264l7.131-23.769h-63.78v-5.942h65.76l7.131-23.768H343.106c7.131-10.7,19.411-16.638,34.861-16.638a61.06,61.06,0,0,1,32.881,9.9l7.923-25.75c-11.488-6.735-26.146-10.3-40.8-10.3-29.711,0-54.272,16.242-64.572,42.388H295.964l-7.527,22.977h20.2v8.319H295.964l-7.527,22.977h25.353c9.9,25.749,34.069,41.992,63.78,41.992a69.566,69.566,0,0,0,39.615-11.884v-31.3c-11.488,11.092-24.957,17.034-39.219,17.034-15.053,0-26.938-5.942-34.465-16.242Zm-89.133,97.453a62.962,62.962,0,0,1-25.75-120.429V266.2C237.334,278.084,210,314.529,210,355.729c0,51.1,41.992,93.095,93.095,93.095,41.2,0,77.645-27.334,89.529-67.345H360.536A62.652,62.652,0,0,1,303.095,418.716Z" transform="translate(-126.809 -136.014)" fill="#51c7fc"/>
      <path id="Path_678" data-name="Path 678" d="M309.133,450.9a89.309,89.309,0,0,0,83.983-59.422H368.951a66.349,66.349,0,0,1-59.818,37.238,67.121,67.121,0,0,1-66.949-66.949,66.35,66.35,0,0,1,37.238-59.818V277.784A89.1,89.1,0,0,0,309.133,450.9Zm74.476-85.172a67.9,67.9,0,0,0,35.653-9.9v-20.6c-9.9,7.527-21.788,12.28-35.257,12.28-19.015,0-34.069-9.111-41.2-24.165h52.687l4.754-15.846h-62.2a38.451,38.451,0,0,1-.4-6.734,43.079,43.079,0,0,1,.4-7.131H404.6l4.754-15.846H342.41c7.131-15.45,21.788-24.561,41.6-24.561a63.655,63.655,0,0,1,30.5,7.923l5.546-17.827c-10.7-5.546-23.373-8.319-36.049-8.319-29.711,0-53.084,17.034-61.8,42.388H304.776l-4.754,15.054h19.015a58.484,58.484,0,0,0-.4,8.319,53.074,53.074,0,0,0,.4,7.923H304.776l-4.754,15.054H322.6C330.922,349.09,353.9,365.729,383.609,365.729Z" transform="translate(-132.847 -142.053)" fill="#fff"/>
    </g>
    <ellipse id="Ellipse_442" data-name="Ellipse 442" cx="89" cy="90" rx="89" ry="90" transform="translate(7144 12867)" fill="#51c7fc"/>
    <path id="Path_769" data-name="Path 769" d="M7684.857,11240.641l-30.737,46.826h13.547l-31.138,45.806h24.9l-35.983,44.4h49.891v35.733h21.677v-35.733h47.031l-38.021-44.4h27.6l-32.52-45.806h12.365Z" transform="translate(-458.537 1614.455)" fill="none" stroke="#fff" stroke-linecap="round" stroke-width="13"/>
  </g>
</svg>
