<svg xmlns="http://www.w3.org/2000/svg" xmlns:xlink="http://www.w3.org/1999/xlink" width="400" height="400" viewBox="0 0 400 400">
  <defs>
    <clipPath id="clip-path">
      <circle id="Ellipse_510" data-name="Ellipse 510" cx="200" cy="200" r="200" transform="translate(9894 16484)" fill="#fff" stroke="#707070" stroke-width="1"/>
    </clipPath>
  </defs>
  <g id="Group_921" data-name="Group 921" transform="translate(-10457 -17267)">
    <g id="Mask_Group_25" data-name="Mask Group 25" transform="translate(563 783)" clip-path="url(#clip-path)">
      <g id="moo" transform="translate(9894 16484)">
        <g id="Group_909" data-name="Group 909">
          <path id="Path_964" data-name="Path 964" d="M0,200V0H400V400H0ZM220,340.8c0-.3,2.4-1.1,5.3-1.8a32.292,32.292,0,0,0,7.4-2.6,10.785,10.785,0,0,1,5.1-1.4c3,0,13.5-6.2,20.3-11.9,2-1.7,4.3-3.1,5.1-3.1.7,0,2-1,2.8-2.1a46.18,46.18,0,0,1,3.8-4.7c1.2-1.4,2.2-3,2.2-3.7a4.408,4.408,0,0,1,1.6-2.6c3.1-2.6,6.3-10.7,7.5-19,1.1-7.8,1-8.8-.8-12.4a44.548,44.548,0,0,1-2.7-6.7c-.3-1.6-1.1-2.8-1.6-2.8-.6,0-1-.9-1-2a7.039,7.039,0,0,0-2.1-4.1c-1.7-1.7-2-2.9-1.5-6.7a197.477,197.477,0,0,0,1.5-24.2c-.1-3.6-.2-12.6-.3-20l-.1-13.5,3.7-.3a15.081,15.081,0,0,1,6.7,1.2c3.8,2,8.1,2,10.7.1a6.972,6.972,0,0,1,3.2-1.5c1.7,0,5.1-4,5.2-6a3.921,3.921,0,0,1,1.9-2.7c2.8-1.7,3.5-7.3,1.5-12.5a23.369,23.369,0,0,0-11.6-12c-2.1-.9-3.8-2.2-3.8-2.8,0-.5-1.8-1-4-1s-4-.4-4-1c0-.5-1.2-1-2.7-1a9.926,9.926,0,0,1-5.3-2,10.234,10.234,0,0,0-5.3-2c-4.8,0-7.7-2.7-7.7-7.1,0-2.8.4-3.9,1.5-3.9.8,0,1.5-.4,1.5-1,0-.5.7-1,1.5-1a1.524,1.524,0,0,0,1.5-1.4c0-.8,1.6-2.7,3.5-4.2,1.9-1.4,3.5-3.2,3.5-3.9a4.215,4.215,0,0,1,1.5-2.5,4.571,4.571,0,0,0,1.5-3,2.5,2.5,0,0,1,1.4-2.3c.7-.3,2.8-3.6,4.7-7.4,1.8-3.7,3.6-6.9,4.1-7.1.4-.2.8-1.5.8-3,0-3.1,1.6-8.4,4.1-13.7A22.385,22.385,0,0,0,294,83a28.345,28.345,0,0,1,1.1-7c3.4-11.1,3.1-12.8-3.6-19.3-3.5-3.4-4.4-3.8-7.5-3.3-4.3.6-6.7,3.2-16.1,17.2a70.013,70.013,0,0,1-4.7,5.9c-1.8,1.9-3.2,3.8-3.2,4.2,0,.5-1.8,2.3-4,4-6.1,5.1-9.7,4.6-19.2-2.8-2.8-2.3-4.6-2.7-12.3-3.2-9.4-.5-12.3.3-19.7,5.4-2.6,1.9-9.8,2.6-9.8,1,0-1.5-12-7.1-15.4-7.1-9.4,0-20.2,4.1-24.6,9.5-.7.8-2.8,1.5-4.7,1.5-2.6,0-4.2-.9-7.3-4-2.2-2.3-4-4.7-4-5.5a1.442,1.442,0,0,0-1.3-1.5c-1.2,0-7.7-7.1-7.7-8.5,0-1.1-7.6-12-9.5-13.7-1.2-1-3.7-1.7-6.2-1.8-3.5,0-4.8.6-8.5,4-3.9,3.7-4.3,4.5-4.2,8.6.1,2.5.6,5,1.2,5.6a5.037,5.037,0,0,1,1.2,3.2c0,2.9,4,19.4,5.7,23.3a17.571,17.571,0,0,1,1.3,5,7.915,7.915,0,0,0,1.5,3.9,8.746,8.746,0,0,1,1.5,4.7c0,1.5.4,2.7.9,2.7.7,0,7.7,9.9,10.8,15.3a7.08,7.08,0,0,0,3.3,2.9c1.2.4,2.3,2,2.6,3.7.5,2.3,1.2,3.1,3.3,3.3,2.3.3,2.6.8,2.9,4.9.3,4.6.3,4.6-4,6.2a24.357,24.357,0,0,1-5.5,1.7,35.611,35.611,0,0,0-6.7,2.5,29.863,29.863,0,0,1-10,2.5c-3,0-4.6.5-5,1.5a7.33,7.33,0,0,1-3.3,2.8,18.431,18.431,0,0,0-11.2,16.9c0,4.3.6,6.1,3.3,9.8,5.3,7.3,15.3,11,20,7.5,1.2-.9,4.2-1.5,7.4-1.5h5.5l-.7,10.3c-1.8,28.3-1.8,31.4-.6,41l1.3,9.9L123,266.7c-5.4,10.4-5.4,10.5-5.3,19.1.2,9.1,0,8.6,7.8,22.2,2,3.5,7.5,9.4,13.1,14,5.8,4.8,20.2,13,22.7,13a7.049,7.049,0,0,1,4.1,1.5,6.8,6.8,0,0,0,4.1,1.5,16.34,16.34,0,0,1,5.8,1.4,31.229,31.229,0,0,0,5.2,1.9c3,.7,39.5.3,39.5-.5Z" fill="#fbcc5c"/>
          <path id="Path_965" data-name="Path 965" d="M190.5,334.3c-10-.6-20.2-2.4-28-5.1-10.5-3.7-14-5.6-16.7-9.2-1.3-1.8-3.1-3-4.5-3-3.3,0-9.7-7-13.4-14.8-4.7-9.9-5.1-19.1-1.4-30.3,2.7-7.8,3.4-8.9,10.9-16.4,7.4-7.3,10.4-9.4,17.6-12.3,1.4-.5,4.2-1.7,6.3-2.7,4.9-2.1,21.3-5.5,30.1-6.2s26.6,1.2,38.6,4.2c11.9,2.9,21.3,7.3,26.7,12.3a78.353,78.353,0,0,0,6,5.3c2.6,2,7.3,9.2,7.3,11.2,0,.9.4,1.7.8,1.7,1.8,0,3.2,7.3,3.2,17.2,0,9.2-.3,10.9-2.1,13.2a20.524,20.524,0,0,0-3,5.9c-1.1,4-7,10.4-10.3,11.3-1.4.3-4.3,2.3-6.6,4.3-4.9,4.4-8.1,6.1-17,8.9-14.9,4.7-24.2,5.7-44.5,4.5ZM179,277.4c5.4-4.9,5.8-6.7,2.4-11.5-4-5.8-7-7.2-11.5-5.1-8.5,4.1-10.5,10.6-4.7,15.8,6.1,5.5,8.5,5.6,13.8.8Zm54.7-.7c2.9-4.3,3-5.5,1.4-10.3-1.1-3.5-1.9-4.3-5.3-5.3-5.6-1.7-9.3-.6-11.8,3.4-3.3,5.3-2.9,9.1,1.1,12.5,2.6,2.3,4.4,2.9,7.9,3,4,0,4.8-.4,6.7-3.3Z" fill="#fbcc5c"/>
          <path id="Path_966" data-name="Path 966" d="M169,270.5c0-3.3.2-3.5,3.5-3.5s3.5.2,3.5,3.5-.2,3.5-3.5,3.5S169,273.8,169,270.5Z" fill="#31d084"/>
          <path id="Path_967" data-name="Path 967" d="M255.5,243.5a23.214,23.214,0,0,1-5.1-3.9c-.6-.9-2.5-1.6-4.1-1.6a7.25,7.25,0,0,1-4.8-2,6.007,6.007,0,0,0-3.6-2c-2.8,0-4.9-1.1-4.9-2.6,0-1-1-1.2-4.4-.8a19.966,19.966,0,0,1-9.7-1.2c-7.9-2.7-28.2-2.4-40.6.5a107.524,107.524,0,0,1-11.7,2.1,3.534,3.534,0,0,0-3,1.5,2.408,2.408,0,0,1-2.1,1.5c-1.6,0-17,7.3-19.1,9.1-.7.6-3,.9-5.1.7l-3.8-.3-.3-12.8c-.2-11.1.2-17.3,2.3-34.2,2.3-17.7,2.9-21.5,3.6-21.5.4,0,.9-2.4,1.2-5.2.3-2.9,1.4-10.2,2.6-16.3,1.1-6,2.4-13,2.8-15.5.7-3.9,1.2-4.5,3.6-4.8,2.8-.3,8.7,1.7,8.7,3,0,.4,1.9,1.7,4.2,2.9,5,2.5,10.1,2.2,16.7-1,5.8-2.7,8.2-2.7,12.7.4,5,3.4,10.8,3.4,15.4,0,4.3-3.1,7.2-3.1,13.4,0,5.6,2.9,12.7,3.3,14.6,1a4.8,4.8,0,0,1,3.1-1.5c1,0,3-1.1,4.5-2.5a9.131,9.131,0,0,1,6-2.5c3,0,3.4.3,3.4,2.5,0,1.4.5,2.5,1,2.5.6,0,1,1.5,1,3.3a96.414,96.414,0,0,0,2,12.6,92.556,92.556,0,0,1,2,14.2c0,2.6.4,5,.9,5.3,1,.7,1.8,4.9,3.2,16.6.5,4.7,1.4,11.9,1.9,16,.6,4.1,1.3,14.6,1.6,23.3l.6,15.7-3.3-.1A17.773,17.773,0,0,1,255.5,243.5Zm-94-52.5c2.3-3.6,2.9-4,6.6-4,3,0,4.2.4,4.6,1.8.8,3,5,5.4,7.2,4.2,2-1,2-1.1.1-4.3-2-3.3-9.1-7.7-12.5-7.7-.9,0-3.9,1.7-6.6,3.8-3.5,2.7-4.8,4.4-4.9,6.3,0,5.2,2.2,5.2,5.5-.1Zm63.5-1.7c1.3-1.5,9-1.7,9-.3,0,.6.5,1,1.2,1s2.2,1.2,3.4,2.8c2.1,2.5,2.4,2.6,3.9,1,1.6-1.5,1.6-1.8-.4-5.5-2.1-3.5-7.7-7.3-11-7.3-3,0-10,4.2-11.9,7.2-2,3.1-2,3.4-.4,5.1,1.6,1.8,1.7,1.8,3.4-.5C223.2,191.5,224.5,189.9,225,189.3Z" fill="#fbcc5c"/>
          <path id="Path_968" data-name="Path 968" d="M101.1,187.8c-2.5-2.6-3.1-4-3.1-7.5,0-3.2.4-4.3,1.5-4.3,1,0,1.5-1,1.5-3.4,0-3.2.3-3.6,4.8-5.1,2.6-.9,6.1-2.3,7.7-3,7.5-3.5,11.1-4.5,15.2-4.5h4.5l-.7,8.8c-1.2,15.6-3,18.1-15.5,20.7C106.6,191.7,104.7,191.5,101.1,187.8Z" fill="#fbcc5c"/>
          <path id="Path_969" data-name="Path 969" d="M276.6,188.5c-3.8-1.3-7.3-2.8-7.9-3.4-1-1-2.2-6.5-3.3-15.8-.5-3.5-1.1-5.3-2-5.3s-1.4-1.2-1.4-3.5c0-3.3.2-3.5,3.5-3.5,2.4,0,3.5.5,3.5,1.5,0,.8.9,1.5,2,1.5,2.5,0,11.5,3.3,19.2,7.1a11.34,11.34,0,0,0,4.3.9c1.8,0,2.5.5,2.5,1.9a3.033,3.033,0,0,0,1.5,2.5c2.3.8,2,10.3-.4,14.2a6.974,6.974,0,0,1-5.7,3.7c-6.1,1-8.4.8-15.8-1.8Z" fill="#fbcc5c"/>
          <path id="Path_970" data-name="Path 970" d="M223.5,134.6c-5.3-2-7.4-3.6-7.7-5.7a5.05,5.05,0,0,0-2.2-3.3c-1.4-.9-2-.7-3,.8-4.3,7-5.3,8.1-8,8.4-4.1.5-9.6-.7-9.6-2,0-.6-1-2.1-2.2-3.3a53.637,53.637,0,0,1-3.6-4c-1.3-1.5-1.5-1.5-3.3.1a5.689,5.689,0,0,0-1.9,3.3c-.1,3.8-2.6,5.2-10.4,5.8-6.8.5-7.9.4-10.9-1.7-5.5-3.8-8.8-11.7-9-21.6-.1-5.4.4-8.1,2.4-12.4C159,88.2,165.6,84,178,84c5.4,0,6.9.4,9,2.3a17.831,17.831,0,0,0,4.3,3c.9.3,1.7,1.1,1.7,1.7,0,.5,1.1,1,2.4,1,1.4,0,2.8.5,3.1,1,.7,1.2,4.6-.6,5.8-2.6.4-.8,1.9-1.4,3.2-1.4,1.5,0,2.5-.6,2.5-1.4,0-3.2,14.4-4.9,20.7-2.5,4.7,1.7,10.2,6,12.4,9.5,2.4,3.9,4.7,23.6,3.1,25.7a14.733,14.733,0,0,0-1.6,4.2c-.9,3.5-2.4,5.5-4.1,5.5-.8,0-2.7,1.4-4.3,3-3.3,3.3-7.1,3.8-12.7,1.6Z" fill="#fbcc5c"/>
          <path id="Path_971" data-name="Path 971" d="M255.8,127.3c-1-3.4-2-11.4-2.4-19.4l-.6-13.6,9.6-9.9C267.7,79,272,73.8,272,73c0-.9,1.1-2.7,2.4-3.9a25.525,25.525,0,0,0,4.2-5.7c1.6-2.9,2.4-3.4,5.4-3.4,2.8,0,3.7.5,4.8,2.7,1.6,3.6,1.5,10.7-.2,14.6a33.442,33.442,0,0,0-2,8.4,31.767,31.767,0,0,1-2.5,9.4A20.03,20.03,0,0,0,282,102a9.3,9.3,0,0,1-1.5,4.6,7.575,7.575,0,0,0-1.5,3.9,9.21,9.21,0,0,1-2,4.5,9.973,9.973,0,0,0-2,3.4c0,.5-1.1,2.4-2.5,4.2s-2.5,3.7-2.5,4.3-.9,1.1-1.9,1.1c-1.3,0-2.1.8-2.3,2.3-.2,1.8-1,2.3-4.3,2.5l-4,.3Z" fill="#fbcc5c"/>
          <path id="Path_972" data-name="Path 972" d="M129.3,126.2a23.517,23.517,0,0,1-3.7-5.9,16.922,16.922,0,0,0-2.9-4.5c-3.3-3.6-5.5-10.1-10.7-30.8-3.2-12.7-3.5-16-2.4-21.9.6-2.9.9-3.1,5-3.1,4.2,0,4.4.1,4.4,3,0,1.9.5,3,1.4,3,1.7,0,5.6,5.1,5.6,7.4a1.561,1.561,0,0,0,1.5,1.6c.8,0,2,1,2.6,2.2s4.5,5.5,8.6,9.7l7.5,7.6-.7,14.4c-.6,13.6-.8,14.6-3.3,17.7-2.2,2.7-3.4,3.4-6.3,3.4s-4.1-.7-6.6-3.8Z" fill="#fbcc5c"/>
        </g>
        <g id="Group_910" data-name="Group 910">
          <path id="Path_973" data-name="Path 973" d="M196,345.6c-.3-.3-4.6-.6-9.6-.7-6.5-.1-10.3-.7-13-2a23.558,23.558,0,0,0-7.1-1.9c-1.7,0-3.3-.5-3.5-1.2-.2-.6-1.8-1.3-3.6-1.4-3.1-.2-17.6-8.4-23.6-13.4-5.6-4.6-11.1-10.5-13.1-14-8.6-14.9-9-16.7-8.4-32.2.1-3.8.6-6.8.9-6.8.4,0,2.8-4,5.3-8.9l4.5-8.9-1.3-9.1c-1.4-9.1-1.2-21.1.4-32.6,1-7.1.3-8.5-4.6-8.5-2.1,0-3.6-.6-3.9-1.5-.4-1-2.1-1.5-5.4-1.5-5.8,0-13.3-3.2-15.7-6.6-1-1.4-2.8-3.7-3.9-5.2-1.9-2.4-2.1-3.6-1.6-10.7.3-4.6,1.1-9.1,2-10.5,1.9-3.1,7-8,8.3-8,.5,0,2.6-1.6,4.6-3.5,4.1-3.9,4.5-4,7.1-2.4,1.3.8,3,.5,7.6-1.5a42.086,42.086,0,0,1,6.9-2.6c2.6,0,9.7-3.4,9.7-4.6,0-2.1-2.2-2.8-3.2-1-.9,1.6-1.1,1.6-2.9,0-1.4-1.2-1.6-2-.8-3,1.3-1.6-.5-5.4-2.6-5.4-.8,0-2-1.1-2.7-2.4-2.8-5.1-10.1-15.6-10.9-15.6-.5,0-.9-1.2-.9-2.7a8.746,8.746,0,0,0-1.5-4.7,7.915,7.915,0,0,1-1.5-3.9,17.57,17.57,0,0,0-1.3-5c-1.7-4-5.7-20.5-5.7-23.4,0-1.2-.4-2.5-1-2.8a3.5,3.5,0,0,1-1-2.6c0-1.1-.4-1.8-.9-1.4-.9.5-.8-2,.5-9.9.7-4.5,9.9-12.6,12.5-11a1.362,1.362,0,0,0,1.9-.7c.7-1.1,1.3-1.1,3.3,0,1.4.7,3,1,3.5.7.6-.4,2.1.4,3.4,1.7,2.3,2.4,9.8,13.2,9.8,14.2,0,1.6,6.6,8.5,7.7,8.1.8-.3,1.3.2,1.3,1.4,0,1.1,1.8,3.8,4.1,6.1l4,4.1,2.7-2.4c7.5-6.6,14.1-8.8,26.7-8.8,6.3,0,14.3,2.9,17.9,6.5,1.5,1.5,1.8,1.5,4.3-.3A65,65,0,0,1,209,77c2.5-1.2,4.8-2.7,5.2-3.3.4-.7,1.1-.7,2.2.2.8.7,5.3,1.4,10.7,1.6,8.2.4,9.5.7,12.6,3.2,1.9,1.5,4.8,3.6,6.4,4.6l2.9,1.9,4-3.4c2.2-1.8,4-3.6,4-4.1,0-.4,1.4-2.3,3.2-4.2a70.019,70.019,0,0,0,4.7-5.9c4.1-6,5.8-8.4,8.9-12.3,1.9-2.3,3.1-4.7,2.7-5.3-.3-.6.3-1,1.5-1,1.4,0,1.9.4,1.4,1.3-.6.9-.3.8.8-.1,3-2.4,10-.5,14.5,3.8,6.8,6.5,7.7,12.1,3.8,23.7-1.2,3.4-1.3,4.9-.4,5.9.8,1,.8,1.4,0,1.4-.6,0-1.1,1-1.1,2.3,0,1.2-1,4.1-2.2,6.5-2.2,4.1-2.2,4.4-.5,5.6,1.8,1.4,2.4,4.6.7,4.6-.5,0-1.3-.8-1.9-1.7-.8-1.5-1-1.4-1.6,1a10.889,10.889,0,0,0-.2,4.7c.3,1.2,0,2-.7,2s-2.3,2.5-3.6,5.6a35.121,35.121,0,0,1-4.7,8c-1.3,1.4-2.3,3.1-2.3,3.8a4.159,4.159,0,0,1-1.5,2.6,4.215,4.215,0,0,0-1.5,2.5c0,.7-1.6,2.5-3.5,3.9-1.9,1.5-3.5,3.4-3.5,4.2a1.524,1.524,0,0,1-1.5,1.4c-.8,0-1.5.5-1.5,1,0,.6-.7,1-1.5,1-2.3,0-1.8,1.6,1,3.4a6.272,6.272,0,0,0,4.5,1.1c1.3-.4,3.2.3,5.3,1.9,1.9,1.4,4.6,2.6,6,2.6,1.5,0,2.7.4,2.7.8s1.5.6,3.4.4c2.6-.3,3.7.1,4.5,1.6a11.039,11.039,0,0,0,4.3,3.3c8.1,3.3,13.3,12.4,12.6,22-.3,5.3-2.8,10.6-4.2,9.2-.4-.4-.5-.1-.2.7.6,1.7-3.6,7-5.6,7a6.972,6.972,0,0,0-3.2,1.5c-2.6,2-12.8,2-16.7,0-4.9-2.6-5.2-1.5-4.4,11.9.5,6.6.8,15.7.7,20.1,0,4.4-.1,10.4-.1,13.2,0,2.9-.5,6.2-1.1,7.3-1.3,2.4.3,6.2,2.4,5.4,1-.4,1.2.2.9,2a4.515,4.515,0,0,0,1.1,4.1,5.463,5.463,0,0,1,1.6,3.1,19.4,19.4,0,0,0,2,5.4c2.3,4.5,2.5,9.8.9,20.3-1.1,6.9-4.7,15.8-6.9,17.2-2,1.2-3.2,5.7-1.8,6.6.7.4.9,1.1.5,1.6-.5.4-1.2.1-1.8-.7-.8-1.3-1.2-1.2-2.4.5-.8,1.1-1.9,2.5-2.5,3.2a5.223,5.223,0,0,0-1,2.2c0,.6-.7.8-1.5.5-.9-.4-3.1.7-5.3,2.6a119.93,119.93,0,0,1-9.9,7.1c-3.5,2.1-6.3,4.5-6.3,5.4,0,1.7-2.3,2-5.1.5-1.4-.8-2.5-.7-4.1.4a42.078,42.078,0,0,1-7.5,2.6c-2.9.7-5.3,1.6-5.3,2.2s-3.2.8-7.7.7a107.2,107.2,0,0,0-13.3.5c-3,.4-5.7.5-6,.2Zm17.4-6.1c6-.8,11.1-1.7,11.5-2.1.3-.4-.7-.4-2.4,0-1.6.4-10.4,1-19.5,1.4-10.6.4-15.1.9-12.5,1.3,6.7,1,11.5.9,22.9-.6ZM183.5,338a26.924,26.924,0,0,0-5-.8l-2-.1,2,.9a14.975,14.975,0,0,0,5,.8h3Zm36-7.8c14.4-3.1,23.3-6.8,29.5-12.3,2.3-2,5.2-4,6.6-4.3,3.3-.9,9.2-7.3,10.3-11.3a20.524,20.524,0,0,1,3-5.9c1.7-2.2,2.1-4.1,2.1-10.2,0-7.3-1.6-14.2-3.2-14.2-.4,0-.8-.8-.8-1.7,0-2-4.7-9.2-7.3-11.2a78.356,78.356,0,0,1-6-5.3c-6.7-6.2-26.1-14.3-27.9-11.6-.5,1-1,.9-2-.5-1.5-2.1-21.2-4.9-29.9-4.2-6.7.5-24.3,3.9-28.4,5.5-2.7,1-2.8,1.3-1.3,2.4,1.8,1.4,1.4,2.6-.9,2.6a1.442,1.442,0,0,1-1.3-1.5,1.453,1.453,0,0,0-1.4-1.5c-2,0-2.9,1.7-1.5,2.6.8.4.7.9-.2,1.5-2,1.3-2.9,1.1-2.9-.6,0-.8-.4-1.5-.9-1.5-1.8,0-12.7,8.8-17.7,14.2-6.6,7.2-11,19.2-10,27,1.4,10.6,11.4,25.8,16.9,25.8,1.4,0,3.2,1.2,4.5,3,7.8,10.6,47.8,18,70.7,13.2Zm-96.6-44.9c-.1-6-.4-8-.9-6.3-1.4,4.3-.9,15,.6,15C122.8,294,123,290.1,122.9,285.3Zm156.2-4.6c-.8-3.7-.9-3.1-.9,4.8,0,8.4.1,8.7,1,4.2A24.594,24.594,0,0,0,279.1,280.7ZM134.5,252c-1.4-.4-2.2-1.8-2.7-4.5-2.4-13.7,1-50,7.8-84.4,1.4-6.8,2.2-12.6,1.9-12.9s-.5.2-.5,1c0,.9-1.9,2.5-4.2,3.7-4,1.9-4.1,2.1-1.5,2.1,2.5,0,2.7.3,2.7,3.8a145.459,145.459,0,0,1-1.9,14.6c-1.7,9.6-2.3,11.2-4.8,13.2a11.1,11.1,0,0,1-4.8,2.5c-1.1.1-.4.4,1.5.8l3.5.6V200c-.1,4.1-.5,13.1-.9,20a237.14,237.14,0,0,0-.1,25.3l.7,12.7,2.7-2.7c2.5-2.7,2.5-2.8.6-3.3Zm135.9-18c.1-9.1-.3-22.2-.8-29.2l-.9-12.8h6.8l-4.5-2.4c-3.2-1.7-4.7-3.2-5.2-5.2-.5-2.1-.6-1.8-.2,1.1,3.1,25.9,3.4,30.8,3.2,47.6l-.3,18.4-3,.6c-1.6.4-2.2.7-1.2.8,1,0,2.3,1.3,2.9,2.9l1.1,2.7,1-4c.6-2.2,1.1-11.4,1.1-20.5ZM262,218.9c-.7-4.2-1.4-9.4-1.6-11.5-1.7-19.3-3.3-29.2-4.5-30-.5-.3-.9-2.7-.9-5.3a92.556,92.556,0,0,0-2-14.2,96.413,96.413,0,0,1-2-12.6c0-1.8-.4-3.3-.9-3.3s-1.1-1.2-1.3-2.6l-.3-2.6-2.8,2.6c-1.5,1.4-3.5,2.6-4.4,2.6a5.394,5.394,0,0,0-3.2,1.4c-.9.7-4.3,1.6-7.6,1.9-5.2.5-6.7.2-11.8-2.2l-5.7-2.8-3.1,2.3c-5.8,4.2-16.4,4-22.1-.6-1.4-1-2.9-1.6-3.4-1.1a49.459,49.459,0,0,1-6.2,2.9,18.306,18.306,0,0,1-10.5,1.5c-5.3-.6-12.7-3.6-12.7-5.2,0-.8-1.8-1.5-4.5-1.9-.5-.1-1,.6-1,1.6a13.722,13.722,0,0,1-.8,3.7c-1.3,3.8-4.9,25-5.1,29.8,0,2.8-.7,5.1-1.5,5.6a2.239,2.239,0,0,0-.9,2.2,4.309,4.309,0,0,1-.4,3.1c-.5,1-1.1,5.4-1.4,9.9s-1,9.3-1.6,10.8c-1.4,3.6-2.2,35.7-.9,36.5.6.4,2.7-.4,4.8-1.6a133.946,133.946,0,0,1,17.8-8.4c1.8-.6,1.7-.8-.8-1.3l-2.8-.6,3.1-1.4c2.5-1,3.7-1.1,5.7-.2a5.259,5.259,0,0,0,3.5.5,8.7,8.7,0,0,1,3.3-.9c1.2-.2,4.6-.8,7.6-1.4,6.6-1.3,15.6-2.5,18.9-2.4,11.2.1,19,.9,22,2.1a34.269,34.269,0,0,0,9.7,1.6c3.5.1,6.3.5,6.2,1-.1,1.3,2.3,2.6,4.7,2.6a6.413,6.413,0,0,1,3.9,2c1.9,2.1,7.5,2.8,7.5,1,0-.5.7-1,1.5-1,1.8,0,2,2.7.3,3.3-.8.2.2,1.3,2.2,2.5,2.2,1.4,3.7,1.8,4.1,1.1.3-.6,1,0,1.5,1.3,1.4,3.9,1.7-13.8.4-22.3Zm-79.1,14.5c1-.9-5.6-.3-6.9.7-1.1.7-.4.8,2.5.3A24.394,24.394,0,0,0,182.9,233.4Zm42.1.6a20.393,20.393,0,0,0-4.5-.8c-1.6,0-1.5.2.5.8a20.393,20.393,0,0,0,4.5.8C227.1,234.8,227,234.6,225,234Zm-10.5-2c-2.5-1.1-23.9-1.1-28,0-1.8.4,3.9.8,13.5.8C210,232.8,215.7,232.5,214.5,232Zm-89.7-32.2c.4-2.1-2.7-2.4-6-.7-1.7.9-1.8,1.3-.7,2C120.3,202.5,124.4,201.7,124.8,199.8Zm167-4.5a13.39,13.39,0,0,0-4,0c-1.3.2-.5.4,1.7.4C291.7,195.8,292.7,195.6,291.8,195.3ZM116.3,186c8.9-1.9,11.6-4.9,12.3-13.4.3-2.8.7-6.1,1-7.3.7-3.3-2-2.9-13.1,2.2-1.6.7-5.2,2.1-7.9,3-4.5,1.7-4.8,1.9-4.2,4.7.5,2.4.2,3.1-1.4,3.5-2.8.7-2.5,2.4,1.1,6.1,2.2,2.2,3.8,3,5.3,2.7,1.1-.3,4.3-.9,6.9-1.5Zm174.8,1c2.3,0,5.9-5.4,5.9-8.8a2.713,2.713,0,0,0-1.9-2.9c-1.3-.3-1.7-1.1-1.4-2.4.4-1.5,0-1.9-2-1.9-1.4,0-2.7.5-2.9,1.2-.3.7-1,.8-1.7.4-1.1-.7-1.1-1,0-1.7,1-.6.9-.9-.6-1.4a39.662,39.662,0,0,1-5-2c-6.2-2.8-12.6-4.8-13.2-4.1-.4.4-.2,3.3.5,6.4a53.4,53.4,0,0,1,1.2,7.8,7.19,7.19,0,0,0,1.3,3.7c1.4,2,14.5,6.8,16.5,6.1a15.682,15.682,0,0,1,3.3-.4ZM96.9,179.8c0-4.5-.2-4.9-1-2.9-.9,2.2-.4,8.1.7,8.1.2,0,.4-2.4.3-5.2ZM264.5,175c-.4-2.3-.9-3.9-1.2-3.6-.3.2-.2,2.3.2,4.6s.9,3.9,1.2,3.6C265,179.4,264.9,177.3,264.5,175Zm1.5-18,3.5-.6-3.7-.7a10.1,10.1,0,0,1-5.4-3c-1.6-2.2-1.6-2.2-1,.8.4,1.7,1,5,1.4,7.5l.6,4.5.6-4C262.5,157.8,262.8,157.5,266,157ZM144.5,139.1c.4-1.5,0-1.7-2.5-1.3-2.8.4-3,.6-1.5,2.1a11.721,11.721,0,0,1,1.6,5.7l.1,3.9.9-4.4A55.736,55.736,0,0,1,144.5,139.1Zm117-.2c1.6-.6,1.4-.8-1.2-.8-2.5-.1-3.4-.7-4.2-2.8-1-2.5-1.1-2.6-.6-.3.3,1.4,1.1,5.2,1.8,8.5l1.2,6,.5-4.9c.4-3.7,1-5.1,2.5-5.7Zm-86.5.5c0-.2-1.9-.4-4.2-.3-3.5.1-3.8.2-1.8.8C171.3,140.6,175,140.3,175,139.4Zm28.5.6c1.5-.6.9-.9-2.5-.9s-4,.3-2.5.9a11.042,11.042,0,0,0,2.5.9A11.042,11.042,0,0,0,203.5,140Zm29,0c1.5-.6.9-.9-2.5-.9s-4,.3-2.5.9a11.042,11.042,0,0,0,2.5.9A11.042,11.042,0,0,0,232.5,140ZM189,135.3c0-1.8-1.3-5.3-1.9-5.3-.4,0-1.2,1.4-1.8,3-1.1,2.8-1,3,1.3,3C187.9,136,189,135.7,189,135.3Zm26.2-2.8c-.5-3.1-2.2-4.4-2.2-1.8a4.767,4.767,0,0,1-1.2,3.1c-.9.9-.6,1.2,1.4,1.2C215.4,135,215.7,134.6,215.2,132.5Zm19-3.4a6.072,6.072,0,0,1,3.3-2.2c2.6-.5,4.7-4.7,4.1-8.4-.3-1.6-.2-2.4.1-1.7,1,2.5,2.1.1,1.3-3.1a21.444,21.444,0,0,1-.2-6.7c.4-3,.3-3.3-1.7-2.7-1.1.3-2.1.1-2.1-.4s.7-.9,1.5-.9c3.5,0-.6-7.4-6.2-11.3-6.9-4.7-12-5.7-18.2-3.6-2.5.9-3,1.5-2.5,3.1.5,1.8.3,1.9-2.4,1.3-2.1-.4-3.3-.2-3.9.8-1.8,3.2-10.3,5.1-11.8,2.7-.3-.5-1.7-1-3.1-1-1.3,0-2.4-.5-2.4-1,0-.6-.8-1.4-1.7-1.7a17.831,17.831,0,0,1-4.3-3c-4.5-4.1-15.8-2-21.5,4-3.2,3.4-7.8,13.1-7.6,16,.1.9.1,2.7.2,4,.3,5.9,4.3,13.7,8.5,16.6,2.8,2,4.1,2.2,8.1,1.6,4.6-.7,7.2-2.6,7.3-5.4.1-4.4,8.4-7,11.2-3.5.7.9,2.3,2.6,3.6,3.9,1.2,1.2,2.2,2.7,2.2,3.3,0,1.6,5,2.4,6.7,1.1a19.41,19.41,0,0,0,3.3-5c2-3.8,3.6-4.9,7.3-4.9,2.6,0,5.7,2.8,5.7,5.1,0,1.9,2.3,3.6,7.5,5.4,3.3,1.3,5.7.5,7.7-2.4Zm19.2-2.6a32.4,32.4,0,0,1-1.4-9.2,66.861,66.861,0,0,0-.8-9.8c-.5-3.2-.8-1.8-1.2,7-.3,6.1-.9,11.8-1.4,12.7-.6,1.3-.1,1.7,2.6,2.1,1.8.2,3.4.5,3.5.5a31.6,31.6,0,0,0-1.3-3.3Zm9.4.1c.3-2.1.7-2.6,2.3-2.1,1.1.4,1.9.2,1.9-.5,0-.6,1.1-2.6,2.5-4.4s2.5-3.7,2.5-4.2a9.973,9.973,0,0,1,2-3.4,9.052,9.052,0,0,0,2-4.3,9.219,9.219,0,0,1,1.6-4.2,8.776,8.776,0,0,0,1.2-5.5c-.3-1.6.1-3.1.7-3.4,1.4-.5,4.5-9.9,4.5-13.6a10.234,10.234,0,0,0-2-5.3,9.486,9.486,0,0,1-2-3.6c0-1.9,1.6-1.2,3,1.4,1.6,2.9,2.6,2.5,3.5-1.5.6-2.7-1.2-9-2.5-9-.3,0-1.4,1.6-2.4,3.4a25.524,25.524,0,0,1-4.2,5.7c-1.3,1.2-2.4,3-2.4,3.9,0,.8-4.3,6-9.5,11.3l-9.6,9.8.6,10.7c.7,11,3.2,22.4,5,21.9.6-.2,1.1-1.6,1.3-3.1Zm-110.4.7c-.5-1-1.1-6.7-1.4-12.8-.6-12.5-2-11-2,2.2,0,4.5-.4,8.5-1,8.8-2.2,1.4-1,3.5,2.1,3.5,2.6,0,3-.3,2.3-1.7Zm-13.2-3.7a10.556,10.556,0,0,0,2.7-7.3c-.1-2.1.2-7.2.5-11.3l.7-7.5-7-7.3c-3.9-3.9-7.1-6.9-7.1-6.5-.1.5-.7-.7-1.5-2.6-1.1-2.5-2-3.2-3.4-2.8-1.4.3-1.7,0-1.4-1.4.7-2.7-3.3-7.8-5.7-7.2-1.7.5-1.8.1-1.3-3.1.5-2.9.3-3.6-1.1-3.6-1,0-1.4.5-1.1,1a2.452,2.452,0,0,1-.5,2.5c-1.4,1.6-.4,7.5,1.2,7.5.7,0,.8,1.4.5,3.6a16.136,16.136,0,0,0,.7,7.2c.8,2.1,1.7,4.6,2.2,5.7a29.387,29.387,0,0,1,1,5,31.069,31.069,0,0,0,2.3,7.8,27,27,0,0,1,2.1,6.2,2.2,2.2,0,0,0,1.3,1.8c.7.2,2.1,2.2,3.2,4.3,2.2,4.2,7.5,11.4,8.4,11.4.3,0,1.8-1.5,3.3-3.4Zm111-26.8c.4-3.4.2-3.8-1.9-3.8-2.3,0-2.3.1-.8,3a14.64,14.64,0,0,1,1.6,5.2c.2,2.7.6.8,1.1-4.4Zm-96.3-1.6c1.1-2.1,1-2.2-2.1-2.2-2.5,0-2.9.3-2,1.2.7.7,1.2,2.8,1.3,4.8.1,3.2.1,3.3.8.9a51.065,51.065,0,0,1,2-4.7Zm27.4-13.4c-1.5-.7-3.3-.7-6,0-3.8,1-3.7,1,2.2,1C182.4,82.9,183.1,82.7,181.3,81.8Zm43.9,0c-2.3-.8-3.9-.8-5.5,0-1.9.9-1.3,1.1,3.3,1C228.3,82.8,228.4,82.7,225.2,81.8ZM108.4,77.6c-.3-2.1-.8-3.5-1.1-3.2-.2.2-.1,2,.3,4,.3,2.1.8,3.5,1.1,3.2C108.9,81.4,108.8,79.6,108.4,77.6ZM107,68.3c0-2.7-.4-4.3-.8-3.6-.8,1.2-.4,8.3.4,8.3.2,0,.4-2.1.4-4.7Zm187.7-2.5c-.2-1.3-.4-.3-.4,2.2s.2,3.5.4,2.3A16.944,16.944,0,0,0,294.7,65.8ZM117,58c0-.5-.6-1-1.4-1a2.817,2.817,0,0,0-2.1,1c-.3.6.3,1,1.4,1C116.1,59,117,58.6,117,58Z" fill="#fbcc5c"/>
          <path id="Path_974" data-name="Path 974" d="M259,304.6c0-2.1,2-3,3.3-1.7.9.9.8,1.4-.3,2.1C259.9,306.4,259,306.2,259,304.6Z" fill="#fbcc5c"/>
          <path id="Path_975" data-name="Path 975" d="M169,284.2a35.425,35.425,0,0,1-6.8-4.6c-3-2.7-3.2-3.4-3.2-9.2,0-7.1,1.7-9.7,8.2-12.7,6.9-3.2,12.5-1.6,17.1,5,3.9,5.6,3.7,11.1-.5,15.8-2.5,2.9-9.7,7.8-11,7.4a39.974,39.974,0,0,1-3.8-1.7Zm8-5.8c0-.2-1.5-.4-3.2-.4-2.3,0-2.9.3-1.9.9,1.2.8,5.1.4,5.1-.5Zm4.1-9.1c-.9-1.5-1-1.2-1,1.7s.1,3.2,1,1.8A3.178,3.178,0,0,0,181.1,269.3Z" fill="#fbcc5c"/>
          <path id="Path_976" data-name="Path 976" d="M225,284.2c0-.6-.8-.8-1.8-.5-2.1.5-9.3-4.9-10.5-8-1.2-3.2,0-10.4,2.4-14.3a7.382,7.382,0,0,1,5.7-4c2-.4,4-1.1,4.3-1.7.4-.6,2.4-.1,5.3,1.2,2.8,1.4,5.4,2,6.8,1.6,1.6-.4,1.9-.4.9.3-1.1.8-1.1,1.7.4,5.6,2.1,5.5,1.6,10.4-1.7,15.1a9.483,9.483,0,0,1-4.8,3.9c-1.4.3-3.5.8-4.7,1.2-1.3.4-2.3.2-2.3-.4ZM235,271a3.073,3.073,0,0,0-1-2.5c-.6-.4-1,.7-1,2.5s.4,2.9,1,2.5A3.073,3.073,0,0,0,235,271Z" fill="#fbcc5c"/>
          <path id="Path_977" data-name="Path 977" d="M134,270.5c0-1.2,4.2-6.6,4.7-6.1.3.3-.6,1.9-2.1,3.6-1.4,1.7-2.6,2.9-2.6,2.5Z" fill="#fbcc5c"/>
          <path id="Path_978" data-name="Path 978" d="M183.7,259.4c-.8-.8.1-2.4,1.4-2.4.5,0,.9.7.9,1.5,0,1.5-1.2,2-2.3.9Z" fill="#fbcc5c"/>
          <path id="Path_979" data-name="Path 979" d="M150.2,252.8c.6-1.8,2.8-2.1,2.8-.4a1.58,1.58,0,0,1-1.6,1.6c-.9,0-1.4-.5-1.2-1.2Z" fill="#fbcc5c"/>
          <path id="Path_980" data-name="Path 980" d="M233,247c2-1.3,4.3-1.3,3.5,0-.3.6-1.6,1-2.8,1C231.9,248,231.8,247.8,233,247Z" fill="#fbcc5c"/>
          <path id="Path_981" data-name="Path 981" d="M242.7,230.4c-1.1-1.1.3-2.4,2.4-2.4,1.2,0,1.9.5,1.7,1.3-.5,1.4-3.1,2.1-4.1,1.1Z" fill="#fbcc5c"/>
          <path id="Path_982" data-name="Path 982" d="M176.3,200.3c.4-.6-.8-2.4-2.6-4a20.206,20.206,0,0,1-4-4.6c-1-2.7-2.5-2-5.1,2.2-3.8,6-8.7,6.6-12,1.6-1.2-1.9-1.4-3-.6-4.4a11.3,11.3,0,0,0,1-3.8c.1-1,2.3-3.5,4.9-5.5,4.1-3.2,5.7-3.8,9.6-3.8,13.1,0,22.5,12.6,14.2,19.1-4.3,3.4-6.2,4.5-5.4,3.2Z" fill="#fbcc5c"/>
          <path id="Path_983" data-name="Path 983" d="M217.7,199.3a22.313,22.313,0,0,0-2.8-4.5l-2.2-2.7,2.4-4.8a14.032,14.032,0,0,1,7-7c4.3-2.2,16.3-3.7,15.2-2-.3.4.9,1.3,2.5,1.9,4,1.6,7.4,7.6,7,12.5-.3,3.2-.9,4.1-3.8,5.5l-3.5,1.7-3.1-3.4c-1.7-1.9-3.6-3.5-4.3-3.5a1.028,1.028,0,0,1-1.1-1c0-1.5-1.8-1.2-3.2.6-.7.9-2.3,2.7-3.6,4.1-1.2,1.3-2,2.9-1.7,3.4.4.5-.5.9-1.8.9a2.954,2.954,0,0,1-3-1.7ZM234,186c-2-1.3-4.7-1.3-5.5,0-.4.6.9,1,3.2,1C234.5,187,235.1,186.7,234,186Z" fill="#fbcc5c"/>
          <path id="Path_984" data-name="Path 984" d="M247,145.1a10.222,10.222,0,0,0-.7-2.8c-.6-1.6-.5-1.6,1-.4,1.9,1.5,2.3,4.1.7,4.1a.987.987,0,0,1-1-.9Z" fill="#fbcc5c"/>
          <path id="Path_985" data-name="Path 985" d="M111,184.5c-1-1.2-1-1.5.3-1.5a2.675,2.675,0,0,1,2.1,1.5c.3.8.2,1.5-.3,1.5A4.12,4.12,0,0,1,111,184.5Z" fill="#fbcc5c"/>
          <path id="Path_986" data-name="Path 986" d="M173,128c0-.5.7-1,1.5-1s1.5.5,1.5,1c0,.6-.7,1-1.5,1S173,128.6,173,128Z" fill="#fbcc5c"/>
          <path id="Path_987" data-name="Path 987" d="M262,94.2a4.176,4.176,0,0,1,1.6-2.3c1.4-1.2,1.6-1.1,1.3.5C264.5,94.4,262,95.9,262,94.2Z" fill="#fbcc5c"/>
          <path id="Path_988" data-name="Path 988" d="M235,342.4c-1-1.1-.9-1.4.8-1.4,2.5,0,3.7,1.6,1.8,2.3A2.487,2.487,0,0,1,235,342.4Z" fill="#fbcc5c"/>
          <path id="Path_989" data-name="Path 989" d="M117,261.1c0-2,1.3-3.5,2.3-2.5.7.8-.4,4.4-1.4,4.4C117.4,263,117,262.1,117,261.1Z" fill="#fbcc5c"/>
          <path id="Path_990" data-name="Path 990" d="M281.6,139.6c.3-.9,1.1-1.6,1.6-1.6,1.3,0,.5,2.3-1,2.8C281.5,141,281.2,140.6,281.6,139.6Z" fill="#fbcc5c"/>
          <path id="Path_991" data-name="Path 991" d="M221.6,72.3c-2.9-.8-.1-2,3.4-1.5,1.6.2,2.7.8,2.4,1.3-.5.9-2.6,1-5.8.2Z" fill="#fbcc5c"/>
          <path id="Path_992" data-name="Path 992" d="M257,71.2c0-.5.7-1.3,1.6-1.6,1-.4,1.4-.1,1.2.6-.5,1.5-2.8,2.3-2.8,1Z" fill="#fbcc5c"/>
          <path id="Path_993" data-name="Path 993" d="M257.2,63.9a1.345,1.345,0,0,1,2.6,0c.2.6-.4,1.1-1.3,1.1S257,64.5,257.2,63.9Z" fill="#fbcc5c"/>
        </g>
        <g id="Group_911" data-name="Group 911">
          <path id="Path_994" data-name="Path 994" d="M184,342.6c-4.1-.7-10.4-2.1-14-3-7.3-1.9-24-9.5-24-10.8,0-.5-.5-.6-1.1-.2-1.5.9-20.3-18.6-21.8-22.7-.8-1.9-2-5-2.9-6.9-2.2-4.7-2.7-15.9-1.2-23.1a53.95,53.95,0,0,1,5-12.3l3.8-6.4-.5-16.9a243.256,243.256,0,0,1,.7-30.2c.7-8.3.8-13.7.3-14.2-.6-.6-2.8-.3-5.9.7-5.5,1.9-15.5,2.7-18.8,1.4-3.2-1.2-8.6-6.8-10.2-10.6a20.956,20.956,0,0,1,0-14.8c1.8-4.4,6.8-9.4,10.3-10.2a15.4,15.4,0,0,0,3.8-1.4,16.927,16.927,0,0,1,4-1.5,36.238,36.238,0,0,0,6.8-2.3,13.738,13.738,0,0,1,4.2-1.2,2.328,2.328,0,0,0,2-1,3.763,3.763,0,0,1,2.7-1c3.9,0,10.6-3.9,11.2-6.6.6-2.2-.4-3.6-7.2-10.2-4.3-4.2-8.6-9-9.5-10.7-9.6-17.9-13.9-29.5-17.6-48.2-3-14.4-2.9-14.9,2.5-20,4-3.6,5.3-4.3,8.8-4.3,3.6,0,4.6.6,8.6,4.9a67.678,67.678,0,0,1,6.5,7.9C136.2,75.7,148.9,90,151,90c.6,0,2.4-1.3,3.8-2.8,3.3-3.4,8-5.9,14.7-7.8,6.9-1.9,12.7-1.7,17.7.5,2.4,1.1,6,2.7,8,3.5,2,.9,4,2.1,4.4,2.7.4.7,1.2.6,2.2-.3a46.027,46.027,0,0,1,13.3-6.7c9.2-2.9,22.7.7,30.5,8.1,2.7,2.5,3.4,2.8,5,1.7,2.5-1.6,15.6-16.3,21.7-24.5C277.4,57.7,282,54,285.4,54c4.2,0,10.8,4.2,12.3,7.9,1.4,3.2,1.4,4.5-.1,12.6-.9,5-2.1,10.4-2.6,12-.5,1.7-1.9,6.6-3,11-2.4,8.7-9.9,25.3-12.4,27.4a4.6,4.6,0,0,0-1.6,2.7c0,1.6-11.8,13.7-14.2,14.7a3.174,3.174,0,0,0-1.8,2.9c0,4,2.6,6.5,8.2,7.8a32.369,32.369,0,0,1,7.3,2.6,8.053,8.053,0,0,0,4,1.4,8.226,8.226,0,0,1,4.1,1.5,7.9,7.9,0,0,0,4.1,1.5c1.2,0,2.5.4,2.8,1a3.851,3.851,0,0,0,2.8,1c2.8,0,9,5.5,11.2,9.8,3.8,7.6,1,18-6.3,23.7-3.9,3-5.3,3.5-9.9,3.5a44.15,44.15,0,0,1-11.4-2c-3.4-1.2-6.4-1.8-6.7-1.5s0,6.1.6,12.8c1.7,16.7,1.6,21.7-.3,21.7q-1.5,0-1.5,3t1.5,3c1.7,0,2,7.8.6,16.2-.6,3.9-.4,5.3,1.1,7.5,1,1.6,3.3,5.7,5.1,9.3,2.8,5.9,3.1,7.4,3.1,16,0,13.7-2.1,19.2-11,29.3-9.7,10.8-21.9,19.7-27.2,19.7a4.3,4.3,0,0,0-3.1,1.4c-1.6,2-12.8,5.3-22.7,6.9-10.7,1.7-25.2,1.8-34.4.3Zm33-8.1c11.5-2,15.7-3,20.8-4.9,5.7-2.1,12.5-5.8,13.5-7.3A2.558,2.558,0,0,1,253,321c1.2,0,5.4-3.6,11.6-10,12.3-12.4,13.8-30.8,3.8-45.7-2.4-3.6-4.4-7-4.4-7.5s-.8-1.2-1.7-1.5a58.442,58.442,0,0,1-7.4-4.9c-3.1-2.4-5.9-4-6.3-3.7-.3.4-.6.1-.6-.5,0-.7-.8-1.2-1.8-1.2a4.915,4.915,0,0,1-2.8-.9c-1.5-1.5-15-6-22.7-7.6-11.6-2.4-31-2-44.1,1-12.4,2.8-20.7,6.4-31.6,13.5-9.1,6-12.1,9.7-16.1,19.6-2.7,6.8-3.1,8.6-2.7,15.9.2,6.8.8,9.2,3.6,14.6,3.3,6.6,13.3,17.9,15.8,17.9.8,0,1.4.3,1.4.8,0,.8.7,1.2,10.6,6,11.1,5.5,11.5,5.6,23.9,7.3a46.783,46.783,0,0,1,7.4,1.4c1,1.1,20.2.4,28.1-1ZM140.3,246a46.359,46.359,0,0,0,6.6-3.9,112.745,112.745,0,0,1,25.6-10.9c9.1-2.5,18.6-3.4,31.5-2.9,14.5.5,23.1,1.8,27.6,4.2a15.1,15.1,0,0,0,5.7,1.5c1.5,0,2.7.4,2.7.9s1.5,1.4,3.3,2.1c6.2,2.3,11.7,5.2,11.7,6.1,0,.5.9.9,2,.9s2,.4,2,.8c0,1.1,5.6,4.3,6.4,3.5.3-.3.6-7.6.6-16.2a274.192,274.192,0,0,0-4-45.6c-.6-3.3-1.5-8.5-2.1-11.5-1.2-7.5-2.3-12.6-4.9-25-1.2-5.8-2.4-11.6-2.7-13-1-5.3-1.2-5.5-4.4-2.2-1.7,1.8-3.8,3.2-4.6,3.2a2.389,2.389,0,0,0-1.9,1.5c-.3.7-2.6,2.2-5,3.1-5.4,2.1-10.7,1.5-17.7-1.9l-5-2.6-3.4,2.6c-5,3.9-11.5,4.2-17.6.9-5.9-3.2-6.5-3.2-11.9-.3-5.3,2.7-13.6,2.9-19,.3a34.9,34.9,0,0,1-7.8-5.8c-2.7-2.7-4.1-3.6-4.4-2.7-.9,2.8-2.6,10.8-6,27.9-6.5,32.4-10.3,64.7-9.3,78.1.8,9.4,1.3,10.6,3.6,8.5a6.306,6.306,0,0,1,2.4-1.6Zm-19.8-56.6c9.8-3.7,10.4-4.6,12.6-17.3,1.1-6.3,1.8-11.6,1.5-11.8-.4-.4-8.3,2.1-26.4,8.5-6.4,2.3-8.1,4.4-8.2,9.9,0,5.8,1.4,9,5.2,11.3,3.8,2.4,7.7,2.2,15.3-.6Zm173.3,1.2c4.5-2.3,6.3-5.1,6.5-9.9.3-6.4-2.4-9.6-10.4-12.6-3.5-1.3-6.6-2.7-6.9-3.1a2.916,2.916,0,0,0-2.1-.7,43.257,43.257,0,0,1-8.2-2.3c-3.7-1.3-6.9-2.1-7.2-1.8s.1,3.4.9,6.9c.7,3.5,1.7,8.8,2.1,11.7.8,5.7,1.1,6,12,10.9,5.8,2.6,9.5,2.8,13.3.9ZM178,134.7a11.467,11.467,0,0,0,4.2-4.7c2.6-5.1,4.7-6.4,7-4.4a9.817,9.817,0,0,1,2.3,4.8c.7,3.6,4.1,5.6,9.6,5.6,3,0,4.1-.6,6.2-3.3a19.1,19.1,0,0,0,2.8-5.1c.7-3.2,3.5-4.3,5.8-2.2a6.051,6.051,0,0,1,2.1,3.5c.1,3.9,5.2,7.1,11.3,7.1,5.6,0,9.9-2.8,14.5-9.5l3.4-5-.4-9.6c-.4-7.9-.9-10.4-3.2-14.5C239.6,90,232.1,86,222.2,86c-4.8,0-18.9,6.1-19.9,8.6-.8,2.1-2.4,1.7-7-2-8.5-6.7-19.4-8.4-28.3-4.4-1.9.9-4.2,1.8-5.1,2.1s-2.8,3.1-4.4,6.4c-2.3,4.7-2.9,7.6-3.3,14.8-.4,7.8-.1,9.7,1.7,13.5a26.1,26.1,0,0,0,6.3,7.8c3.2,2.6,4.9,3.2,8.7,3.2a19.563,19.563,0,0,0,7.1-1.3Zm-35.1-5.9c.9-3.1,1.9-6,2.4-6.4.4-.4.7-4.4.7-8.9s.5-9.7,1.1-11.4c1.1-3,.9-3.5-1.8-6.4a20.058,20.058,0,0,1-3.6-4.9,2.673,2.673,0,0,0-2.1-1.8c-1.5,0-14.6-15.6-19-22.8-2.4-3.8-3.1-4.3-5.8-4-4.7.5-5.4,2.5-3.9,10.5,5.2,26.6,13.8,47.7,23.2,57.1,2.9,2.9,5.7,5.1,6.3,4.9.5-.2,1.7-2.8,2.5-5.9Zm124.3.9a78.268,78.268,0,0,0,6.3-9.2c1.6-2.7,3.2-5.2,3.5-5.5,2.3-2,11-30.4,13-42.2,1.4-8.7.7-10.8-3.8-10.8-2.5,0-6.2,2.5-6.2,4.1,0,1.7-6.3,10-11,14.5-2.8,2.6-5,5.3-5,6s-2.5,3.5-5.6,6.3L252.8,98l1.1,5.1a59.415,59.415,0,0,1,1.1,10.6,46.242,46.242,0,0,0,2.6,13.3c3,9,4,9.3,9.6,2.7Z" fill="#fff"/>
          <path id="Path_995" data-name="Path 995" d="M166.5,279.8a12.289,12.289,0,0,1-4.1-7.5c-.6-4-.4-4.5,3.4-8.3,2.9-2.9,4.8-4,7-4,3.5,0,9.8,3.4,11.2,6,1.7,3.2,1.2,8.8-1,11a7.165,7.165,0,0,0-2,3c0,1.4-4.4,3-8.1,3-1.9,0-4.1-1.1-6.4-3.2Zm10.1-7.4c.8-3.1-.6-4.7-3.7-4.2a3.414,3.414,0,0,0,.5,6.8c1.9,0,2.7-.7,3.2-2.6Z" fill="#fff"/>
          <path id="Path_996" data-name="Path 996" d="M222.6,281.8a21.535,21.535,0,0,1-4.3-3.6C214,273.6,216,262,221,262a3.073,3.073,0,0,0,2.5-1c.9-1.4,5.2-1.2,8.3.4,4.7,2.4,6.4,5.1,6.4,9.8-.1,3.7-.6,4.8-4.1,8-4.2,4-7.8,4.8-11.5,2.6Zm7.2-10.5c.3-2.9,0-3.3-2.1-3.3-3.5,0-5.2,2.3-3.7,5C225.8,276.4,229.4,275.3,229.8,271.3Z" fill="#fff"/>
          <path id="Path_997" data-name="Path 997" d="M176.3,193.6c-1.7-2.1-3.8-3.5-5.3-3.6-5.5-.4-7.2,0-7.7,2-.6,2.4-4.8,3.7-6.7,2.1-1.4-1.2-1.1-5.1.4-5.1.4,0,1-.9,1.3-2a3.9,3.9,0,0,1,2.4-2.6,46.437,46.437,0,0,0,4.9-2c4.2-1.8,9.8-.2,14.1,4.1,3.6,3.6,4.2,6.5,1.7,8.9-2,2.1-1.8,2.2-5.1-1.8Z" fill="#fff"/>
          <path id="Path_998" data-name="Path 998" d="M219.2,194.9c-2.8-2.2-2.7-2.8.2-6.8,5.9-7.9,15.3-8.6,22.3-1.6,3.8,3.8,4.1,5.7,1.4,8.6l-1.9,2.1-2.8-3.6c-2.5-3.1-3.5-3.6-7-3.6s-4.7.6-7.1,3.3c-2.9,3.3-3,3.3-5.1,1.6Z" fill="#fff"/>
        </g>
        <g id="Group_912" data-name="Group 912">
          <path id="Path_999" data-name="Path 999" d="M177,340.3c0-.9-.3-1.3-.7-1-.3.4-1.1,0-1.7-.7-.6-.8-3.8-2.2-7-3.1-4.8-1.3-6-1.4-6.7-.3s-.9,1.1-.9,0c0-.7-.4-1-1-.7-.5.3-1,.1-1-.5s-.4-.9-.9-.5c-.5.3-1.2-.4-1.6-1.5a2.751,2.751,0,0,0-2.3-2c-2.1,0-6.2-2.7-6.2-4.1,0-1.8,5-.8,7.2,1.5,1.7,1.7,4.3,2.7,10,3.6,4.3.7,7.5,1.6,7.3,2-1,1.6,8.6,3.2,21.6,3.7,14.9.6,32-1,35.6-3.3a9.089,9.089,0,0,1,4.2-1.4c1.1,0,4.5-1.2,7.6-2.7,4.3-2.1,5.8-2.4,6.7-1.5s.9,1.2-.4,1.2c-.8,0-3.2,1.4-5.3,3-2.1,1.7-4.8,3-6.1,3a4.13,4.13,0,0,0-2.9,1c-.3.6-2.4,1-4.6,1-3.5,0-3.9.3-3.9,2.4,0,1.9-.5,2.5-2.2,2.4a8.56,8.56,0,0,1-3.8-1.3c-2-1.6-33.4-1.3-37.3.3-3.6,1.5-3.7,1.5-3.7-.5Z" fill="#fff"/>
          <path id="Path_1000" data-name="Path 1000" d="M249,326.2c0-1.2,5.1-4.8,7.9-5.5a3.876,3.876,0,0,1,3.8.9c2.1,2.1.9,2.9-3.6,2.5-2.7-.2-4,.2-4.4,1.3-.6,1.6-3.7,2.3-3.7.8Z" fill="#fff"/>
          <path id="Path_1001" data-name="Path 1001" d="M142,323.9c-4.7-1.9-10.4-8.9-7.2-8.9,1.8,0,6.2,2.6,6.2,3.6,0,.7,1.1,1.5,2.5,1.8,1.6.4,2.5,1.3,2.5,2.6C146,325.2,145.6,325.3,142,323.9Z" fill="#fff"/>
          <path id="Path_1002" data-name="Path 1002" d="M260,318.6a2.85,2.85,0,0,1,.8-2c1.3-.8,3.5,1.1,2.8,2.3-1,1.6-3.6,1.4-3.6-.3Z" fill="#fff"/>
          <path id="Path_1003" data-name="Path 1003" d="M265.4,314.6c-.4-1,.8-3.5,3.4-6.9,2.3-2.9,4.4-6.8,4.7-8.6a18.566,18.566,0,0,1,1.6-5.3c.6-1.1,1.2-5.6,1.4-10.1.2-6.4-.1-8.8-1.6-11.4-2.7-4.9-.2-8.8,3.1-4.8.8,1,.9,1.5.2,1.5-.6,0,0,1.1,1.2,2.5,2.7,2.9,3.4,9.5,1,9.5-1,0-1.4,1.4-1.4,4.9,0,2.7.4,5.1.9,5.3s1.1,1.6,1.3,3.3c.2,2.3-.1,3-1.7,3.3a8.422,8.422,0,0,0-3.7,2c-2,1.7-2.5,6.2-.7,6.2.6,0,.9,1,.7,2.2-.2,1.7-1,2.2-3.3,2.3a4.082,4.082,0,0,0-4.1,2.3c-1.6,3.3-2.3,3.7-3,1.8Z" fill="#fff"/>
          <path id="Path_1004" data-name="Path 1004" d="M130.5,314c-.8-1.3.4-3.2,1.6-2.5,1.2.8,1.2,3.5,0,3.5A1.9,1.9,0,0,1,130.5,314Z" fill="#fff"/>
          <path id="Path_1005" data-name="Path 1005" d="M126.7,309.5a4,4,0,0,1-1.7-2.4,2.136,2.136,0,0,0-1.4-1.7,2.459,2.459,0,0,1-1.4-2.2,54.084,54.084,0,0,0-1.7-7.7c-1.3-4.6-1.5-7.8-1-14,.4-4.4.8-8.8.8-9.7.1-.9.5-1.4.9-1.2.4.3,1.3-.7,1.8-2.1,1-2.6,3-2.6,3,.1,0,.8.4,1.4.9,1.4s.8,1.1.7,2.3c-.1,1.7-.6,2.3-1.8,1.9-2-.5-3.7,2.6-2.1,3.7a5.863,5.863,0,0,1,1.6,2.4c.5,1.2.1,1.7-1.3,1.7-1.8,0-2,.7-2,5.5a21.164,21.164,0,0,0,2,9.5,18.042,18.042,0,0,1,2,6c0,1.1.4,2,.9,2,1.2,0,4.1,2.8,4.1,4,0,1.5-2.6,1.8-4.3.5Z" fill="#fff"/>
          <path id="Path_1006" data-name="Path 1006" d="M178,281c0-.5-1.4-1.3-3.2-1.8-4.6-1.2-4.5-2.8.1-3.6,3.9-.6,4-.6,3-3.9-1.3-4.4-.2-8.7,2.1-8.7,1.9,0,5,3.5,5,5.5,0,.5-.5.2-1.1-.7-1.2-2.2-2.5-2.3-3.3-.2-.9,2.3.4,6.4,2,6.4,2,0,1.7,1.7-.7,5.1-2,2.9-3.9,3.8-3.9,1.9Z" fill="#fff"/>
          <path id="Path_1007" data-name="Path 1007" d="M165.7,279.4c-1.1-1.1-.8-5.2.4-6a2.386,2.386,0,0,1,2.4.7c1.2,1.2,1.1,1.8-.3,3.7-1,1.3-2.1,2-2.5,1.6Z" fill="#fff"/>
          <path id="Path_1008" data-name="Path 1008" d="M217.9,277.7A6.608,6.608,0,0,1,216,274c0-2.4.9-2.5,2.5-.4.6.9,2.9,2.2,5,3,3.6,1.2,4,1.2,5.4-.9,2.1-3,2.7-11.7.7-11.7-2.1,0-6.7,2.6-5.9,3.3.3.4-.5.7-2,.7a4.39,4.39,0,0,0-3.6,1.8c-.9,1.4-1,1.3-1.1-1,0-2.1.5-2.8,2-2.8a1.767,1.767,0,0,0,2-1.9c0-4,9.2-4.4,12.9-.6,1.3,1.4,2.7,2.5,3.2,2.5a.987.987,0,0,1,.9,1c0,.6-.9,1-1.9,1-2.8,0-3.5,1.7-1.1,2.5,2.1.7,2.8,4.5.8,4.5-.6,0-2.2,1-3.5,2.2-3.1,2.9-11.5,3.2-14.4.5Z" fill="#fff"/>
          <path id="Path_1009" data-name="Path 1009" d="M164,269.5c0-3.4,5.8-9.9,7.6-8.5.9.8,1.9.8,3.2.1,3-1.6,3.3-.2.9,3.4-1.9,2.9-2.3,3.1-3.3,1.7-1.1-1.5-1.4-1.5-3.3.2-1.6,1.5-1.8,2.1-.9,2.8,1,.6,1,1-.2,1.8C165.5,272.6,164,272.1,164,269.5Z" fill="#fff"/>
          <path id="Path_1010" data-name="Path 1010" d="M125.4,264.9c-.3-.5.3-2.2,1.3-3.7,1.9-2.8,2-3.2,2.2-6.9.1-1.5.7-2.3,1.8-2.3,1.5,0,1.5-.1-.1-1.3-2.2-1.6-3.2-16.4-2.1-31,1.1-15.1,2.7-10.8,2.4,6.6l-.2,15.2,2.4.6,2.4.7-2.2.7c-1.3.4-2.3,1-2.3,1.4.1,1.5,1.7,3,4.3,3.6,2.1.6,3.4.1,6-2.2a29.68,29.68,0,0,1,6.8-4.3c1.8-.8,3.8-2,4.2-2.7.9-1.5,4.3-1.8,5.1-.4,1.3,2.1-.8,3.8-7.9,6.4-6,2.3-8.5,3.9-13.9,9.3-3.6,3.6-6.6,7.4-6.6,8.4C129,265,126.4,266.4,125.4,264.9Z" fill="#fff"/>
          <path id="Path_1011" data-name="Path 1011" d="M268.6,261.6c-.8-1.9-2.4-3.7-3.5-4.1a4.744,4.744,0,0,1-2.8-3.3c-.7-2.8-4.3-7.4-4.3-5.4,0,2.1-2.7,1.3-4.4-1.3A10.428,10.428,0,0,0,248,244c-2.2-.6-4-1.5-4-2,0-.6-.7-1-1.5-1s-1.5-.4-1.5-1c0-.5-1.1-1-2.4-1a4.335,4.335,0,0,1-3.2-1.1c-.3-.6-2.4-.9-4.5-.7-2.2.2-3.9,0-3.9-.5s-.5-.7-1.2-.5c-.6.2-2-.4-3-1.4-2.1-2.1-10.4-2.5-11-.6-.6,1.8-4.8,2-5.4.3-.5-1.1-2.3-1.5-7.1-1.5-4.9,0-6.4.3-6,1.3.3.9-.6,1.3-2.9,1.3s-3.4-.5-3.4-1.5c0-1.1-1-1.2-4.7-.7-4.3.5-7.6,1.4-19.6,4.8-2.6.8-4.1.8-4.8.1-1.3-1.3-.9-1.5,6.1-3.6,14.3-4.2,23.9-5.7,35.8-5.7,9.6,0,22.5,1.6,25.4,3.1a10.719,10.719,0,0,0,4.1.9,8.571,8.571,0,0,1,4.3,1.5,9.989,9.989,0,0,0,5.2,1.5,7.166,7.166,0,0,1,5.6,2.5c1.6,1.7,2.9,2.2,4.4,1.8,1.3-.3,2.2-.1,2.2.6,0,.6.7,1.1,1.5,1.1a2.408,2.408,0,0,1,2.1,1.5c.4.8,1.1,1.5,1.6,1.5a3.438,3.438,0,0,1,2.2,1.4c.6.8,2.7,1.6,4.6,1.8,3.5.3,3.5.3,3.9-4.2.2-2.5.4-10.6.5-18,.2-17.9.2-18,2.6-18a1.993,1.993,0,0,1,2.1,1.3,20.8,20.8,0,0,0,.4,3,1.274,1.274,0,0,1-1.1,1.7c-.8,0-1.4,1-1.4,2.5,0,1.6.6,2.5,1.5,2.5.8,0,1.5.1,1.6.3,0,.1.3,4.8.6,10.4l.5,10.2-2.3-.5-2.4-.5,2.4,1.1c1.5.7,2.1,1.5,1.7,2.6a15.635,15.635,0,0,0-.6,2c0,.2-.6.4-1.4.4-1.2,0-2.6,4-2.6,7.6,0,1.7,2.6,1.8,3.4.2.3-.7.3,0,.1,1.6a7.148,7.148,0,0,0,1.5,5.4c1.5,1.9,1.7,2.8.9,3.8-2,2.5-4.8,1.6-6.3-2Z" fill="#fff"/>
          <path id="Path_1012" data-name="Path 1012" d="M266.3,235.5c0-2.2.2-3,.4-1.7a13.389,13.389,0,0,1,0,4C266.4,238.7,266.2,237.7,266.3,235.5Z" fill="#f5ca59"/>
          <path id="Path_1013" data-name="Path 1013" d="M128.4,206c4.8-14.5,4.8-15.1-1.6-14.3a18.865,18.865,0,0,0-6.3,1.9c-2.5,1.8-6.5,1.8-6.5.1,0-1.4,4.7-3.7,11.7-5.6,5.2-1.4,8.5-6,7.3-10.2-.6-2-.4-3.1.5-3.9.9-.7,1.4-3.1,1.4-5.8a23.374,23.374,0,0,1,.6-6.7c.4-1.4,0-2.7-1.5-4-2-1.8-2.2-1.8-4.9-.2a13.035,13.035,0,0,1-4.9,1.7c-2.5,0-4.9,2.6-3,3.3.7.2,1,.8.6,1.2-.5.5-2.6.2-4.8-.5-3.5-1.2-4.2-1.1-5.3.2-.6.9-2.8,1.9-4.8,2.2-4,.7-8,4.1-5.7,4.9,1.7.6.9,1.4-2.5,2.2-2.4.6-2.7.5-2.7-1.9a4.047,4.047,0,0,1,2.3-3.7,28.01,28.01,0,0,0,4-2.7,7.357,7.357,0,0,1,3.5-1.8c.9-.2,6.2-1.9,11.7-3.9s12.2-4.4,14.9-5.3c5.9-2,8.1-4.9,7.2-9.7a5.936,5.936,0,0,0-3.4-4.7,5.772,5.772,0,0,1-3-3.6c-.3-1.7-.8-2.1-2.1-1.7s-2.6-.5-4.5-3c-1.5-1.9-3.1-3.3-3.5-3-.5.2-.6-.6-.4-2,.4-1.6-.2-2.9-1.6-4.1-2.2-1.9-2.8-4.4-1-4.4a15.163,15.163,0,0,1,4.4,2.3c2.5,1.7,3.1,2.7,2.4,3.4-.8.8-.5,1.4,1,2.2,1.1.6,1.8,1.7,1.5,2.4-.2.7,1.5,3.1,3.9,5.4,4,3.8,4.6,4,6.8,3A5.843,5.843,0,0,0,143,131c.4-2.7.9-3.4,2.4-3.2,1.5.3,1.8-.1,1.3-2.4a9.4,9.4,0,0,1,.3-4.8c.4-1.2.4-4.7.1-7.8-.4-3.2-.4-5.9,0-6,1.3-.5,2.2-9.8,1-9.8a1.266,1.266,0,0,1-1.1-1.4c0-.8-1.1-2.3-2.5-3.4A6.53,6.53,0,0,1,142,88c0-1.5-.5-2-1.4-1.7-1.6.6-3.6-1.1-3.6-3,0-.8-3.4-4.7-7.6-8.8-4.7-4.6-7.4-8.1-7.2-9.1.5-2.7,2.7-2.8,3.7-.2A23.248,23.248,0,0,0,130,71c9.8,10.6,13.3,14,14.7,14a.955.955,0,0,1,1,1.4c-.5,1.3,3.1,5.6,4.7,5.6.4,0,2.8-1.8,5.3-4s5.4-4,6.3-4a2.639,2.639,0,0,0,2.3-2c.5-1.8.8-1.9,3.1-.9,3.2,1.5,3.3,2.2.1,4.3-1.4.9-2.5,2.4-2.5,3.4s-.3,1.3-.8.6c-.4-.6-2-1-3.5-.9-2.2.1-3.3,1-4.5,3.4-.8,1.8-2.1,3.5-2.9,3.8-1.4.6-1.8,3.9-.4,4.5a4.893,4.893,0,0,1,1.5,2.4c.5,1.7.2,2-1.6,2-1.7-.1-2.4.5-2.6,2.2-.2,1.2.1,2.2.7,2.2s1.1.8,1.1,1.8c0,1.4.2,1.5,1,.2.6-1,.8-.4.8,2-.1,1.9-.3,2.9-.5,2.3a2.368,2.368,0,0,0-2-1.3c-1.2,0-1.4.7-.9,3.3.4,1.7.9,4.9,1.3,7,.4,2.8,1.2,4.1,2.9,4.7a4.665,4.665,0,0,1,2.6,3.2,2.76,2.76,0,0,0,2.8,2.6c5.2.6,7,1.3,7,2.8,0,2-4.2,3.5-5.5,1.9-2.8-3.4-9.8-8.8-11.8-9-1.2-.2-2.8-.5-3.6-.6a1.505,1.505,0,0,0-1.8.9c-.3.8.4,1.6,1.6,1.9,3,.8,3.1,7.3.1,7.3-2.3,0-2.6,1.5-.7,3.5.8.8,1.2,2.7.9,5.1-.3,2.2-.7,3.3-.9,2.7-.6-1.8-2.8-1.6-4.3.3-1.1,1.3-1,1.6.8,2.1,2.7.7,2.9,2.9.3,3.6-2.2.5-4.2,8.8-2.2,9.5a1.7,1.7,0,0,1-.6,3.3c-1.1,0-1.3.3-.5.6,1.7.7,1.5,4.3-.3,4.3s-2,2.6-.2,3.3c.7.4.6.6-.4.6a2.914,2.914,0,0,0-2.3,1.7c-1.1,2.9-.6,8.5.9,10.1,1.7,1.6,1.2,3.3-1.1,3.3-.8,0-1.4.4-1.4.9a10.947,10.947,0,0,1-.6,2.5c-.4,1.1-.1,1.6,1,1.6,2.9,0,1.7,3.5-1.6,4.9a13.319,13.319,0,0,0-4.1,2.5c-.5.7-.7.5-.3-.4Z" fill="#fff"/>
          <path id="Path_1014" data-name="Path 1014" d="M266.8,206.4c-1.3-2.2-1.6-6-.7-7.4.8-1.1,1.2-1.2,1.6-.2a1.95,1.95,0,0,0,3.6,0c.3-.8.6-.6.6.4a2.764,2.764,0,0,1-1.3,2.5,7.489,7.489,0,0,0-2.4,3.2C267.7,206.3,267.1,206.9,266.8,206.4Z" fill="#fff"/>
          <path id="Path_1015" data-name="Path 1015" d="M296,197c0-.5-.7-1-1.5-1-2,0-1.9-3.9.1-4.7.9-.3,2.3.3,3.5,1.5,2.4,2.6,2.4,2.9-.1,4.2C296.6,197.7,296,197.7,296,197Z" fill="#fff"/>
          <path id="Path_1016" data-name="Path 1016" d="M103,196c0-.5-.7-.7-1.5-.4-1,.4-1.5,0-1.5-1.4a13.553,13.553,0,0,0-.6-3.6c-.4-1.2,0-1.6,1.5-1.6,1.2,0,2.1.6,2.1,1.5,0,2,3.2,3.5,5.8,2.8,1.3-.3,2.2-.1,2.2.6,0,.6-1.2,1.3-2.7,1.7a22.685,22.685,0,0,0-4,1C103.6,196.8,103,196.5,103,196Z" fill="#fff"/>
          <path id="Path_1017" data-name="Path 1017" d="M178.8,196.2a15.464,15.464,0,0,0-.3-1.7,15.62,15.62,0,0,1-.4-2.7c0-1-1.9-3-4.1-4.4-3.9-2.6-4.1-2.7-8.1-1.1-3.5,1.4-4.1,1.4-4.6.1-.9-2.3.3-2.8,7.1-3.2,5.7-.4,6.6-.2,8.7,1.9,1.3,1.3,2.2,3.2,2.1,4.1a2.21,2.21,0,0,0,1.2,2.4c2,.8,2.1,4,.1,4.8-.8.3-1.6.2-1.7-.2Z" fill="#fff"/>
          <path id="Path_1018" data-name="Path 1018" d="M265.1,194.8c-.4-1.3-1.4-5.4-2.1-9.3-.7-3.8-1.5-7.7-1.8-8.5a20.388,20.388,0,0,1-.3-4.7,17.994,17.994,0,0,0-.4-5.4c-.6-1.7-.9-1.9-1.7-.8-.6.9-.7-.4-.3-4,.5-4.6.4-5.3-.9-4.8-1.8.7-2-.1-.8-2.1a2.11,2.11,0,0,1,2.5-.6c1.3.4,1.7.1,1.7-1.5,0-2.7,1.6-2.7,6,.1,1.9,1.2,7.1,3.1,11.4,4.2,8.5,2.3,11.2,4.6,5.3,4.6-3.3,0-6.9-1.2-14.5-4.6-3.1-1.4-3.5-1.4-5.3.2-2.5,2.2-2.4,4.1.1,4.9,2.3.7,2.7,3.3.5,4.1-2.6,1-1.6,8.4,1.1,8.4.8,0,1.4.5,1.4,1a.945.945,0,0,1-1,1c-.5,0-1,1.3-1,2.9,0,4,6.1,9.1,10.8,9.1,4,0,9.2,2.5,9.2,4.5,0,2.2-1.7,2.7-4.2,1.3-7.2-4-12.8-4.3-12.8-.8,0,2.9-1.9,3.4-2.9.8Z" fill="#fff"/>
          <path id="Path_1019" data-name="Path 1019" d="M158.6,193.5a2.828,2.828,0,0,1-1.1-3.5c.9-2.9,3.7-2.1,4.2,1.2.4,3.3-.6,4.1-3.1,2.3Z" fill="#fff"/>
          <path id="Path_1020" data-name="Path 1020" d="M219,192.4c0-1.6,1.3-3.9,3.4-6,3-3,4-3.4,8.9-3.4,5.6,0,7.8,1.3,5.8,3.3-.7.7-2.2.7-5.2-.3-3.8-1.3-4.3-1.2-5.5.4-.7,1.1-1.1,2.2-.9,2.7.3.4-.5.9-1.7,1.1a2.8,2.8,0,0,0-2.6,2.6c-.5,3.1-2.2,2.8-2.2-.4Z" fill="#fff"/>
          <path id="Path_1021" data-name="Path 1021" d="M287,194c0-.5.7-1,1.5-1s1.5.5,1.5,1c0,.6-.7,1-1.5,1S287,194.6,287,194Z" fill="#fff"/>
          <path id="Path_1022" data-name="Path 1022" d="M237.5,191c-.8-1.4.3-3,2.1-3,.8,0,1.4.5,1.4,1,0,.6.6,1,1.4,1a2.817,2.817,0,0,1,2.1,1c.4.6-.8,1-2.9,1C239.7,192,237.8,191.6,237.5,191Z" fill="#fff"/>
          <path id="Path_1023" data-name="Path 1023" d="M96.5,189c.6-1-2.9-6.3-3.6-5.6-.2.3-.5-.7-.6-2.1-.1-1.9.1-2.2.8-1.2.6.9.9,1,.9.2a2.534,2.534,0,0,0-1-1.8c-.7-.4-.7-1.2,0-2.5.8-1.5,1.3-1.7,3.5-.7,2.7,1.3,3.4,4.7,1,4.7-.8,0-1.5.5-1.5,1.1s.9.9,1.9.6c1.3-.3,2.1.1,2.3,1.2.4,2-2,7.1-3.3,7.1-.6,0-.7-.5-.4-1Z" fill="#fff"/>
          <path id="Path_1024" data-name="Path 1024" d="M299.2,189.3c-1-.4-.9-.9.4-2.4a4.751,4.751,0,0,0,1.1-3.9c-.3-1.1-.1-1.8.3-1.5,1.3.8,2.2-3.2,1.5-5.7-1-3.1-7.1-9.4-10.6-10.9-1.6-.6-2.9-1.8-2.9-2.5,0-2.1,3.4-1.7,5.5.6a6.007,6.007,0,0,0,3.6,2c2,0,7.9,4.6,7.9,6.2a3.459,3.459,0,0,1-1.6,2.2c-1.4,1.1-1.3,1.5,1,3.7,3.5,3.3,3.5,6.7-.1,7.1-1.9.2-2.9,1-3.1,2.3-.5,2.6-1.4,3.4-3,2.8Z" fill="#fff"/>
          <path id="Path_1025" data-name="Path 1025" d="M255.3,144.6c-.1-4-.7-6.4-1.7-7.1a1.98,1.98,0,0,1-.7-2.4c.6-1,1.7-1,4.6-.2,2.6.7,4.4.7,5.7,0,1.8-.9,1.9-.8,1.6,1.8a4.942,4.942,0,0,1-2.8,4c-1.4.6-1.9,1.2-1.2,1.2,1.9.1,1.5,4.1-.5,4.1-1.4.1-1.3.4.6,1.4l2.3,1.3-2.3.8c-5.2,1.7-5.4,1.6-5.6-4.9Z" fill="#fff"/>
          <path id="Path_1026" data-name="Path 1026" d="M170.8,141.5c-.5-2.2-.2-2.5,2.1-2.5,2.4.1,2.5.1.7,1.5-1,.7-1.5,1.8-1.1,2.4.3.6.2,1.1-.3,1.1S171,142.9,170.8,141.5Z" fill="#fff"/>
          <path id="Path_1027" data-name="Path 1027" d="M201,142.2c0-.7-1.1-1.2-2.5-1.2s-2.8-.7-3.1-1.5a3.292,3.292,0,0,0-2.8-1.5,5.386,5.386,0,0,1-3.4-1.2c-1.2-1.2-1.7-4.8-.6-4.8,1.2,0,6.4,3.4,6.4,4.2,0,1.2,6.6.9,11-.4,3.1-1,3.9-1.7,3.4-3.1-.7-2.3,1.3-4.8,3.2-4,1,.4,1.2,0,.8-1.1-.7-1.8,1.2-2.1,3.5-.7.9.6,1.1,1.8.7,3.7-.6,2.5-.3,3.1,2.1,4.1a46.054,46.054,0,0,0,7.5,1.8,18.864,18.864,0,0,0,15.7-5.9c1.4-1.4,3-2.6,3.8-2.6a1.476,1.476,0,0,0,1.3-1.6c0-.8-.4-1.3-.9-.9-.6.3-.5-.9.1-2.7a34.267,34.267,0,0,0,1.3-7.8c.2-6.4.4-7,1.5-7,.6,0,1,1.6,1,3.5,0,2.3.5,3.5,1.4,3.5,1.9,0,2.7,3.9,1.4,6.3a12.782,12.782,0,0,0-.5,5.8c.4,2.9.2,3.6-.9,3.2-.8-.3-1.4.1-1.4.8,0,1.1-.3,1.1-1-.1-.8-1.2-1-1.1-1,.7,0,1.6-.7,2.2-2.7,2.5-1.8.2-2.7.8-2.6,1.8.2,1.2-1,1.6-5.3,1.8-3.3.1-6.2.9-7.1,1.7-1.7,1.8-2.8,1.9-5.3.5-1.3-.7-1.9-.6-2.4.5-.6,1.8-3.6.9-3.6-1.1a1.367,1.367,0,0,0-1.4-1.4,2.648,2.648,0,0,1-2.1-2,2.876,2.876,0,0,0-2.5-2c-2.2,0-5.3,2.8-4.5,4.1.4.5-.6.9-2.1.9a6.286,6.286,0,0,0-4.5,2.2c-1.1,1.1-1.9,1.6-1.9,1Z" fill="#fff"/>
          <path id="Path_1028" data-name="Path 1028" d="M176,137.5c0-.7,1.6-2.2,3.5-3.4,1.9-1.1,3.4-2.4,3.3-2.8-.3-1.2,2.2-5.3,3.2-5.3,2.1,0,1,6-1.7,8.6C181.2,137.7,176,139.6,176,137.5Z" fill="#fff"/>
          <path id="Path_1029" data-name="Path 1029" d="M266,134.1a19.83,19.83,0,0,1,3.1-4.7c4.8-6,8.1-12.2,7.3-13.5-.4-.8-.3-.9.4-.5s1.2.1,1.2-.7a7.548,7.548,0,0,1,2-3.5,7.531,7.531,0,0,0,2-4c0-1.1,1-4.1,2.2-6.8a48.168,48.168,0,0,0,2.9-8.9,77.927,77.927,0,0,1,2-8,45.19,45.19,0,0,0,1.3-8.2c.1-2.2.4-3.9.9-3.6.4.2.8-1.6.9-4.1s.2-5.4.2-6.3a2.246,2.246,0,0,0-1.1-2.1c-.7-.2-1.3.3-1.3,1.2,0,1.1-.8,1.5-2.4,1.4-1.4-.1-2.2-.6-1.9-1.1s-.4-1.5-1.6-2.3c-1.2-.9-1.9-1.9-1.6-2.4.8-1.3,9.5,0,12.1,1.7,2.6,1.6,3.9,5.3,1.9,5.3-1.4,0-2.7,10.2-1.3,10.8,1.7.8.8,5-1.2,5.5s-2.9,4.7-1,4.7c.6,0,1,1.4,1,3,0,2.2-.6,3.3-2.2,4-1.3.5-1.8.9-1.2.9,1.6.1,2.3,3.2,1.3,5.6-.4,1.1-.8,1.4-.8.8-.1-1.6-3.1-1.7-3.1-.2,0,.6-1.4,4.1-3.1,7.8-1.7,3.6-3.6,7.7-4.3,9-.8,1.9-.8,2.5.2,2.8a3.294,3.294,0,0,1,1.2,2.7c0,1.9-.4,2.2-2.4,1.9-2.7-.6-4.5,1.5-2.5,2.8,1.1.7.9.9-.6,1-1.1,0-1.4.3-.7.6,2.1.8,1.4,3.2-.8,2.6-1.6-.4-1.9-.2-1.4,1.1.4,1,.1,1.6-.9,1.6a4.371,4.371,0,0,0-2.7,1.5c-1.3,1.6-4,2-4,.6Z" fill="#fff"/>
          <path id="Path_1030" data-name="Path 1030" d="M117.3,113.8a12.727,12.727,0,0,1-1.9-4.2c-.4-1.6-1.5-3.1-2.4-3.3-1.5-.4-1.6-1-.8-4.1.7-2.6.7-3.7-.1-4-1.3-.4-1.5-3.2-.2-3.2.5,0,1.1.9,1.4,2s1.2,2,1.9,2c1.3,0,2.1,1.2,4.6,6.3.2.4-.3.7-1.2.7-2.2,0-2,2.6.4,4.3,1.7,1.2,1.8,1.6.7,3.1s-1.5,1.5-2.4.4Z" fill="#fff"/>
          <path id="Path_1031" data-name="Path 1031" d="M247.4,103.6a15.777,15.777,0,0,1-.2-5.2c.2-3.3,0-3.9-1.4-3.6-1.1.2-1.8-.3-1.8-1.2,0-1.8-4.9-6.6-6.7-6.6-.7,0-1.3-.9-1.3-2,0-2.3,2.5-2.7,3.7-.6.4.8,2.7,2.5,5.1,3.9,2.3,1.3,4,2.6,3.7,2.9s.3.8,1.5,1.1c1.3.3,2,0,2-.8,0-1.2,6.2-8.5,15.3-17.9,2-2.1,3.7-4.5,3.7-5.2a5.852,5.852,0,0,1,1.8-3.2,25.633,25.633,0,0,0,3.2-4.7c2-3.8,3.3-4,4.8-.8,1.7,3.7,1.5,4.2-.8,3.6-2.7-.7-5.2,2.4-4.5,5.5.4,1.7.1,2.2-1.5,2.2-1.3,0-2.8,1.3-4,3.3a21.887,21.887,0,0,1-5,5.5c-1.6,1.3-3,2.8-3,3.4s-1.2,2.2-2.7,3.6c-1.8,1.6-2.3,2.7-1.5,3,2,.6,1.4,2.1-.7,1.5-2.6-.7-6.1,2.9-5.4,5.6.3,1.2.1,2.1-.6,2.1-2,0-1.2,1.7,1.2,2.5,1.9.6,1.9.8.5,1.2-1,.2-1.8.9-1.8,1.4,0,1.4-3,1.1-3.6-.5Z" fill="#fff"/>
          <path id="Path_1032" data-name="Path 1032" d="M195.1,90.1c-3.2-3.2-4-4.5-3.1-5.1,1.5-.9,4-.2,4,1.1,0,2,6.6.9,9.2-1.5,1.4-1.4,2.8-2.2,3.2-1.9.3.3,1.6-.1,3-1,3.1-2.1,15-3.4,16-1.8a4.335,4.335,0,0,0,3.2,1.1c2.7,0,3.1,1.4,1.1,3.5-1.1,1.1-1.5,1-2.4-.4-.8-1.3-2.4-1.7-6.9-1.6-11.2.3-11.3.3-12,2.9-.4,1.7-1.5,2.6-3.9,3a8.437,8.437,0,0,0-5.2,3.4l-1.8,2.7-4.4-4.4Z" fill="#fff"/>
          <path id="Path_1033" data-name="Path 1033" d="M108.4,91.3c-.3-1.3-1-2.3-1.4-2.3s-.8-2.6-.9-5.8A38.586,38.586,0,0,0,105,74a41.691,41.691,0,0,1-1-8.7c0-4.6.3-5.4,3-7.3,2.3-1.6,3-1.8,3-.7a4.371,4.371,0,0,1-1.5,2.7c-1.6,1.4-2,4-.6,4,.5,0,1.1.9,1.4,2,.3,1.3,0,2-.9,2-1.9,0-1.8,4.5.2,6.4.8.9,1.9,1.4,2.3,1.2.4-.3.8.4.8,1.5.1,1-.5,1.9-1.3,1.9-1.6,0-1.7.5-.8,3.8a2.84,2.84,0,0,0,2.6,2.2c1,0,1.7.4,1.3.9a1.216,1.216,0,0,0,.5,1.6c1.7,1,1.1,2.5-1,2.5a3.7,3.7,0,0,0-2.9,1.8C109.1,93.3,109,93.3,108.4,91.3Z" fill="#fff"/>
          <path id="Path_1034" data-name="Path 1034" d="M178.3,84.3a1.857,1.857,0,0,0-3.5-.1c-.3.8-1,.4-1.7-1.1-.7-1.3-.9-2.7-.4-3.1,1.4-1.3,6.3-2.1,6.3-1,0,.5,1.5,1,3.3,1a22.288,22.288,0,0,1,6.2,1.4l3,1.4L188,84.3c-2.6,1.1-3.7,1.2-4.2.4-.6-.9-.8-.9-.8,0,0,1.6-4.1,1.2-4.7-.4Z" fill="#fff"/>
          <path id="Path_1035" data-name="Path 1035" d="M118,59.1l-2.5-1.9,2.8-.7c3.1-.8,5.9.9,5,3.1-.7,1.9-2.3,1.7-5.3-.5Z" fill="#fff"/>
        </g>
      </g>
    </g>
    <ellipse id="Ellipse_509" data-name="Ellipse 509" cx="47" cy="17.5" rx="47" ry="17.5" transform="translate(10610 17519)" fill="#fbcc5c"/>
    <g id="CELO_Color_L_Circle" data-name="CELO Color L Circle" transform="translate(10506 17226.137)">
      <g id="Group_900" data-name="Group 900" transform="translate(110.808 286.782)">
        <path id="Path_890" data-name="Path 890" d="M102.758,53.536A32.043,32.043,0,0,0,41.106,41.291,32.033,32.033,0,1,0,83.251,83.009,32.328,32.328,0,0,0,102.758,53.536ZM53.636,94.827A24.022,24.022,0,0,1,38.686,51.97v1.566A32.084,32.084,0,0,0,70.722,85.572h1.993A24.3,24.3,0,0,1,53.636,94.827ZM76.987,76.744a22.944,22.944,0,0,1-6.265.854A24.124,24.124,0,0,1,46.659,53.536a20.237,20.237,0,0,1,.854-5.98,22.944,22.944,0,0,1,6.265-.854A24.124,24.124,0,0,1,77.841,70.764,37.78,37.78,0,0,1,76.987,76.744Zm8.685-4.414V70.764A32.084,32.084,0,0,0,53.636,38.728H51.643a23.816,23.816,0,0,1,18.937-9.255A24.1,24.1,0,0,1,85.672,72.33Z" transform="translate(-21.6 -21.5)" fill="#fff"/>
      </g>
    </g>
  </g>
</svg>
