<svg xmlns="http://www.w3.org/2000/svg" xmlns:xlink="http://www.w3.org/1999/xlink" width="397" height="398" viewBox="0 0 397 398">
  <defs>
    <clipPath id="clip-path">
      <ellipse id="Ellipse_508" data-name="Ellipse 508" cx="198.5" cy="199" rx="198.5" ry="199" transform="translate(10208 16132)" fill="#fff" stroke="#707070" stroke-width="1"/>
    </clipPath>
  </defs>
  <g id="Group_919" data-name="Group 919" transform="translate(-10454 -16745)">
    <g id="Mask_Group_24" data-name="Mask Group 24" transform="translate(246 613)" clip-path="url(#clip-path)">
      <g id="moo" transform="translate(10208 16130)">
        <g id="Group_904" data-name="Group 904">
          <path id="Path_891" data-name="Path 891" d="M0,200V0H400V400H0ZM220,340.8c0-.3,2.4-1.1,5.3-1.8a32.292,32.292,0,0,0,7.4-2.6,10.785,10.785,0,0,1,5.1-1.4c3,0,13.5-6.2,20.3-11.9,2-1.7,4.3-3.1,5.1-3.1.7,0,2-1,2.8-2.1a46.18,46.18,0,0,1,3.8-4.7c1.2-1.4,2.2-3,2.2-3.7a4.408,4.408,0,0,1,1.6-2.6c3.1-2.6,6.3-10.7,7.5-19,1.1-7.8,1-8.8-.8-12.4a44.548,44.548,0,0,1-2.7-6.7c-.3-1.6-1.1-2.8-1.6-2.8-.6,0-1-.9-1-2a7.039,7.039,0,0,0-2.1-4.1c-1.7-1.7-2-2.9-1.5-6.7a197.477,197.477,0,0,0,1.5-24.2c-.1-3.6-.2-12.6-.3-20l-.1-13.5,3.7-.3a15.081,15.081,0,0,1,6.7,1.2c3.8,2,8.1,2,10.7.1a6.972,6.972,0,0,1,3.2-1.5c1.7,0,5.1-4,5.2-6a3.921,3.921,0,0,1,1.9-2.7c2.8-1.7,3.5-7.3,1.5-12.5a23.369,23.369,0,0,0-11.6-12c-2.1-.9-3.8-2.2-3.8-2.8,0-.5-1.8-1-4-1s-4-.4-4-1c0-.5-1.2-1-2.7-1a9.926,9.926,0,0,1-5.3-2,10.234,10.234,0,0,0-5.3-2c-4.8,0-7.7-2.7-7.7-7.1,0-2.8.4-3.9,1.5-3.9.8,0,1.5-.4,1.5-1,0-.5.7-1,1.5-1a1.524,1.524,0,0,0,1.5-1.4c0-.8,1.6-2.7,3.5-4.2,1.9-1.4,3.5-3.2,3.5-3.9a4.215,4.215,0,0,1,1.5-2.5,4.571,4.571,0,0,0,1.5-3,2.5,2.5,0,0,1,1.4-2.3c.7-.3,2.8-3.6,4.7-7.4,1.8-3.7,3.6-6.9,4.1-7.1.4-.2.8-1.5.8-3,0-3.1,1.6-8.4,4.1-13.7A22.385,22.385,0,0,0,294,83a28.345,28.345,0,0,1,1.1-7c3.4-11.1,3.1-12.8-3.6-19.3-3.5-3.4-4.4-3.8-7.5-3.3-4.3.6-6.7,3.2-16.1,17.2a70.013,70.013,0,0,1-4.7,5.9c-1.8,1.9-3.2,3.8-3.2,4.2,0,.5-1.8,2.3-4,4-6.1,5.1-9.7,4.6-19.2-2.8-2.8-2.3-4.6-2.7-12.3-3.2-9.4-.5-12.3.3-19.7,5.4-2.6,1.9-9.8,2.6-9.8,1,0-1.5-12-7.1-15.4-7.1-9.4,0-20.2,4.1-24.6,9.5-.7.8-2.8,1.5-4.7,1.5-2.6,0-4.2-.9-7.3-4-2.2-2.3-4-4.7-4-5.5a1.442,1.442,0,0,0-1.3-1.5c-1.2,0-7.7-7.1-7.7-8.5,0-1.1-7.6-12-9.5-13.7-1.2-1-3.7-1.7-6.2-1.8-3.5,0-4.8.6-8.5,4-3.9,3.7-4.3,4.5-4.2,8.6.1,2.5.6,5,1.2,5.6a5.037,5.037,0,0,1,1.2,3.2c0,2.9,4,19.4,5.7,23.3a17.571,17.571,0,0,1,1.3,5,7.915,7.915,0,0,0,1.5,3.9,8.746,8.746,0,0,1,1.5,4.7c0,1.5.4,2.7.9,2.7.7,0,7.7,9.9,10.8,15.3a7.08,7.08,0,0,0,3.3,2.9c1.2.4,2.3,2,2.6,3.7.5,2.3,1.2,3.1,3.3,3.3,2.3.3,2.6.8,2.9,4.9.3,4.6.3,4.6-4,6.2a24.357,24.357,0,0,1-5.5,1.7,35.611,35.611,0,0,0-6.7,2.5,29.863,29.863,0,0,1-10,2.5c-3,0-4.6.5-5,1.5a7.33,7.33,0,0,1-3.3,2.8,18.431,18.431,0,0,0-11.2,16.9c0,4.3.6,6.1,3.3,9.8,5.3,7.3,15.3,11,20,7.5,1.2-.9,4.2-1.5,7.4-1.5h5.5l-.7,10.3c-1.8,28.3-1.8,31.4-.6,41l1.3,9.9L123,266.7c-5.4,10.4-5.4,10.5-5.3,19.1.2,9.1,0,8.6,7.8,22.2,2,3.5,7.5,9.4,13.1,14,5.8,4.8,20.2,13,22.7,13a7.049,7.049,0,0,1,4.1,1.5,6.8,6.8,0,0,0,4.1,1.5,16.34,16.34,0,0,1,5.8,1.4,31.229,31.229,0,0,0,5.2,1.9c3,.7,39.5.3,39.5-.5Z" fill="#6a9ce9"/>
          <path id="Path_892" data-name="Path 892" d="M190.5,334.3c-10-.6-20.2-2.4-28-5.1-10.5-3.7-14-5.6-16.7-9.2-1.3-1.8-3.1-3-4.5-3-3.3,0-9.7-7-13.4-14.8-4.7-9.9-5.1-19.1-1.4-30.3,2.7-7.8,3.4-8.9,10.9-16.4,7.4-7.3,10.4-9.4,17.6-12.3,1.4-.5,4.2-1.7,6.3-2.7,4.9-2.1,21.3-5.5,30.1-6.2s26.6,1.2,38.6,4.2c11.9,2.9,21.3,7.3,26.7,12.3a78.353,78.353,0,0,0,6,5.3c2.6,2,7.3,9.2,7.3,11.2,0,.9.4,1.7.8,1.7,1.8,0,3.2,7.3,3.2,17.2,0,9.2-.3,10.9-2.1,13.2a20.524,20.524,0,0,0-3,5.9c-1.1,4-7,10.4-10.3,11.3-1.4.3-4.3,2.3-6.6,4.3-4.9,4.4-8.1,6.1-17,8.9-14.9,4.7-24.2,5.7-44.5,4.5ZM179,277.4c5.4-4.9,5.8-6.7,2.4-11.5-4-5.8-7-7.2-11.5-5.1-8.5,4.1-10.5,10.6-4.7,15.8,6.1,5.5,8.5,5.6,13.8.8Zm54.7-.7c2.9-4.3,3-5.5,1.4-10.3-1.1-3.5-1.9-4.3-5.3-5.3-5.6-1.7-9.3-.6-11.8,3.4-3.3,5.3-2.9,9.1,1.1,12.5,2.6,2.3,4.4,2.9,7.9,3,4,0,4.8-.4,6.7-3.3Z" fill="#6a9ce9"/>
          <path id="Path_893" data-name="Path 893" d="M169,270.5c0-3.3.2-3.5,3.5-3.5s3.5.2,3.5,3.5-.2,3.5-3.5,3.5S169,273.8,169,270.5Z" fill="#6a9ce9"/>
          <path id="Path_894" data-name="Path 894" d="M255.5,243.5a23.214,23.214,0,0,1-5.1-3.9c-.6-.9-2.5-1.6-4.1-1.6a7.25,7.25,0,0,1-4.8-2,6.007,6.007,0,0,0-3.6-2c-2.8,0-4.9-1.1-4.9-2.6,0-1-1-1.2-4.4-.8a19.966,19.966,0,0,1-9.7-1.2c-7.9-2.7-28.2-2.4-40.6.5a107.524,107.524,0,0,1-11.7,2.1,3.534,3.534,0,0,0-3,1.5,2.408,2.408,0,0,1-2.1,1.5c-1.6,0-17,7.3-19.1,9.1-.7.6-3,.9-5.1.7l-3.8-.3-.3-12.8c-.2-11.1.2-17.3,2.3-34.2,2.3-17.7,2.9-21.5,3.6-21.5.4,0,.9-2.4,1.2-5.2.3-2.9,1.4-10.2,2.6-16.3,1.1-6,2.4-13,2.8-15.5.7-3.9,1.2-4.5,3.6-4.8,2.8-.3,8.7,1.7,8.7,3,0,.4,1.9,1.7,4.2,2.9,5,2.5,10.1,2.2,16.7-1,5.8-2.7,8.2-2.7,12.7.4,5,3.4,10.8,3.4,15.4,0,4.3-3.1,7.2-3.1,13.4,0,5.6,2.9,12.7,3.3,14.6,1a4.8,4.8,0,0,1,3.1-1.5c1,0,3-1.1,4.5-2.5a9.131,9.131,0,0,1,6-2.5c3,0,3.4.3,3.4,2.5,0,1.4.5,2.5,1,2.5.6,0,1,1.5,1,3.3a96.414,96.414,0,0,0,2,12.6,92.556,92.556,0,0,1,2,14.2c0,2.6.4,5,.9,5.3,1,.7,1.8,4.9,3.2,16.6.5,4.7,1.4,11.9,1.9,16,.6,4.1,1.3,14.6,1.6,23.3l.6,15.7-3.3-.1A17.773,17.773,0,0,1,255.5,243.5Zm-94-52.5c2.3-3.6,2.9-4,6.6-4,3,0,4.2.4,4.6,1.8.8,3,5,5.4,7.2,4.2,2-1,2-1.1.1-4.3-2-3.3-9.1-7.7-12.5-7.7-.9,0-3.9,1.7-6.6,3.8-3.5,2.7-4.8,4.4-4.9,6.3,0,5.2,2.2,5.2,5.5-.1Zm63.5-1.7c1.3-1.5,9-1.7,9-.3,0,.6.5,1,1.2,1s2.2,1.2,3.4,2.8c2.1,2.5,2.4,2.6,3.9,1,1.6-1.5,1.6-1.8-.4-5.5-2.1-3.5-7.7-7.3-11-7.3-3,0-10,4.2-11.9,7.2-2,3.1-2,3.4-.4,5.1,1.6,1.8,1.7,1.8,3.4-.5C223.2,191.5,224.5,189.9,225,189.3Z" fill="#6a9ce9"/>
          <path id="Path_895" data-name="Path 895" d="M101.1,187.8c-2.5-2.6-3.1-4-3.1-7.5,0-3.2.4-4.3,1.5-4.3,1,0,1.5-1,1.5-3.4,0-3.2.3-3.6,4.8-5.1,2.6-.9,6.1-2.3,7.7-3,7.5-3.5,11.1-4.5,15.2-4.5h4.5l-.7,8.8c-1.2,15.6-3,18.1-15.5,20.7C106.6,191.7,104.7,191.5,101.1,187.8Z" fill="#6a9ce9"/>
          <path id="Path_896" data-name="Path 896" d="M276.6,188.5c-3.8-1.3-7.3-2.8-7.9-3.4-1-1-2.2-6.5-3.3-15.8-.5-3.5-1.1-5.3-2-5.3s-1.4-1.2-1.4-3.5c0-3.3.2-3.5,3.5-3.5,2.4,0,3.5.5,3.5,1.5,0,.8.9,1.5,2,1.5,2.5,0,11.5,3.3,19.2,7.1a11.34,11.34,0,0,0,4.3.9c1.8,0,2.5.5,2.5,1.9a3.033,3.033,0,0,0,1.5,2.5c2.3.8,2,10.3-.4,14.2a6.974,6.974,0,0,1-5.7,3.7c-6.1,1-8.4.8-15.8-1.8Z" fill="#6a9ce9"/>
          <path id="Path_897" data-name="Path 897" d="M223.5,134.6c-5.3-2-7.4-3.6-7.7-5.7a5.05,5.05,0,0,0-2.2-3.3c-1.4-.9-2-.7-3,.8-4.3,7-5.3,8.1-8,8.4-4.1.5-9.6-.7-9.6-2,0-.6-1-2.1-2.2-3.3a53.637,53.637,0,0,1-3.6-4c-1.3-1.5-1.5-1.5-3.3.1a5.689,5.689,0,0,0-1.9,3.3c-.1,3.8-2.6,5.2-10.4,5.8-6.8.5-7.9.4-10.9-1.7-5.5-3.8-8.8-11.7-9-21.6-.1-5.4.4-8.1,2.4-12.4C159,88.2,165.6,84,178,84c5.4,0,6.9.4,9,2.3a17.831,17.831,0,0,0,4.3,3c.9.3,1.7,1.1,1.7,1.7,0,.5,1.1,1,2.4,1,1.4,0,2.8.5,3.1,1,.7,1.2,4.6-.6,5.8-2.6.4-.8,1.9-1.4,3.2-1.4,1.5,0,2.5-.6,2.5-1.4,0-3.2,14.4-4.9,20.7-2.5,4.7,1.7,10.2,6,12.4,9.5,2.4,3.9,4.7,23.6,3.1,25.7a14.733,14.733,0,0,0-1.6,4.2c-.9,3.5-2.4,5.5-4.1,5.5-.8,0-2.7,1.4-4.3,3-3.3,3.3-7.1,3.8-12.7,1.6Z" fill="#6a9ce9"/>
          <path id="Path_898" data-name="Path 898" d="M255.8,127.3c-1-3.4-2-11.4-2.4-19.4l-.6-13.6,9.6-9.9C267.7,79,272,73.8,272,73c0-.9,1.1-2.7,2.4-3.9a25.525,25.525,0,0,0,4.2-5.7c1.6-2.9,2.4-3.4,5.4-3.4,2.8,0,3.7.5,4.8,2.7,1.6,3.6,1.5,10.7-.2,14.6a33.442,33.442,0,0,0-2,8.4,31.767,31.767,0,0,1-2.5,9.4A20.03,20.03,0,0,0,282,102a9.3,9.3,0,0,1-1.5,4.6,7.575,7.575,0,0,0-1.5,3.9,9.21,9.21,0,0,1-2,4.5,9.973,9.973,0,0,0-2,3.4c0,.5-1.1,2.4-2.5,4.2s-2.5,3.7-2.5,4.3-.9,1.1-1.9,1.1c-1.3,0-2.1.8-2.3,2.3-.2,1.8-1,2.3-4.3,2.5l-4,.3Z" fill="#6a9ce9"/>
          <path id="Path_899" data-name="Path 899" d="M129.3,126.2a23.517,23.517,0,0,1-3.7-5.9,16.922,16.922,0,0,0-2.9-4.5c-3.3-3.6-5.5-10.1-10.7-30.8-3.2-12.7-3.5-16-2.4-21.9.6-2.9.9-3.1,5-3.1,4.2,0,4.4.1,4.4,3,0,1.9.5,3,1.4,3,1.7,0,5.6,5.1,5.6,7.4a1.561,1.561,0,0,0,1.5,1.6c.8,0,2,1,2.6,2.2s4.5,5.5,8.6,9.7l7.5,7.6-.7,14.4c-.6,13.6-.8,14.6-3.3,17.7-2.2,2.7-3.4,3.4-6.3,3.4s-4.1-.7-6.6-3.8Z" fill="#6a9ce9"/>
        </g>
        <g id="Group_905" data-name="Group 905">
          <path id="Path_900" data-name="Path 900" d="M196,345.6c-.3-.3-4.6-.6-9.6-.7-6.5-.1-10.3-.7-13-2a23.558,23.558,0,0,0-7.1-1.9c-1.7,0-3.3-.5-3.5-1.2-.2-.6-1.8-1.3-3.6-1.4-3.1-.2-17.6-8.4-23.6-13.4-5.6-4.6-11.1-10.5-13.1-14-8.6-14.9-9-16.7-8.4-32.2.1-3.8.6-6.8.9-6.8.4,0,2.8-4,5.3-8.9l4.5-8.9-1.3-9.1c-1.4-9.1-1.2-21.1.4-32.6,1-7.1.3-8.5-4.6-8.5-2.1,0-3.6-.6-3.9-1.5-.4-1-2.1-1.5-5.4-1.5-5.8,0-13.3-3.2-15.7-6.6-1-1.4-2.8-3.7-3.9-5.2-1.9-2.4-2.1-3.6-1.6-10.7.3-4.6,1.1-9.1,2-10.5,1.9-3.1,7-8,8.3-8,.5,0,2.6-1.6,4.6-3.5,4.1-3.9,4.5-4,7.1-2.4,1.3.8,3,.5,7.6-1.5a42.086,42.086,0,0,1,6.9-2.6c2.6,0,9.7-3.4,9.7-4.6,0-2.1-2.2-2.8-3.2-1-.9,1.6-1.1,1.6-2.9,0-1.4-1.2-1.6-2-.8-3,1.3-1.6-.5-5.4-2.6-5.4-.8,0-2-1.1-2.7-2.4-2.8-5.1-10.1-15.6-10.9-15.6-.5,0-.9-1.2-.9-2.7a8.746,8.746,0,0,0-1.5-4.7,7.915,7.915,0,0,1-1.5-3.9,17.57,17.57,0,0,0-1.3-5c-1.7-4-5.7-20.5-5.7-23.4,0-1.2-.4-2.5-1-2.8a3.5,3.5,0,0,1-1-2.6c0-1.1-.4-1.8-.9-1.4-.9.5-.8-2,.5-9.9.7-4.5,9.9-12.6,12.5-11a1.362,1.362,0,0,0,1.9-.7c.7-1.1,1.3-1.1,3.3,0,1.4.7,3,1,3.5.7.6-.4,2.1.4,3.4,1.7,2.3,2.4,9.8,13.2,9.8,14.2,0,1.6,6.6,8.5,7.7,8.1.8-.3,1.3.2,1.3,1.4,0,1.1,1.8,3.8,4.1,6.1l4,4.1,2.7-2.4c7.5-6.6,14.1-8.8,26.7-8.8,6.3,0,14.3,2.9,17.9,6.5,1.5,1.5,1.8,1.5,4.3-.3A65,65,0,0,1,209,77c2.5-1.2,4.8-2.7,5.2-3.3.4-.7,1.1-.7,2.2.2.8.7,5.3,1.4,10.7,1.6,8.2.4,9.5.7,12.6,3.2,1.9,1.5,4.8,3.6,6.4,4.6l2.9,1.9,4-3.4c2.2-1.8,4-3.6,4-4.1,0-.4,1.4-2.3,3.2-4.2a70.019,70.019,0,0,0,4.7-5.9c4.1-6,5.8-8.4,8.9-12.3,1.9-2.3,3.1-4.7,2.7-5.3-.3-.6.3-1,1.5-1,1.4,0,1.9.4,1.4,1.3-.6.9-.3.8.8-.1,3-2.4,10-.5,14.5,3.8,6.8,6.5,7.7,12.1,3.8,23.7-1.2,3.4-1.3,4.9-.4,5.9.8,1,.8,1.4,0,1.4-.6,0-1.1,1-1.1,2.3,0,1.2-1,4.1-2.2,6.5-2.2,4.1-2.2,4.4-.5,5.6,1.8,1.4,2.4,4.6.7,4.6-.5,0-1.3-.8-1.9-1.7-.8-1.5-1-1.4-1.6,1a10.889,10.889,0,0,0-.2,4.7c.3,1.2,0,2-.7,2s-2.3,2.5-3.6,5.6a35.121,35.121,0,0,1-4.7,8c-1.3,1.4-2.3,3.1-2.3,3.8a4.159,4.159,0,0,1-1.5,2.6,4.215,4.215,0,0,0-1.5,2.5c0,.7-1.6,2.5-3.5,3.9-1.9,1.5-3.5,3.4-3.5,4.2a1.524,1.524,0,0,1-1.5,1.4c-.8,0-1.5.5-1.5,1,0,.6-.7,1-1.5,1-2.3,0-1.8,1.6,1,3.4a6.272,6.272,0,0,0,4.5,1.1c1.3-.4,3.2.3,5.3,1.9,1.9,1.4,4.6,2.6,6,2.6,1.5,0,2.7.4,2.7.8s1.5.6,3.4.4c2.6-.3,3.7.1,4.5,1.6a11.039,11.039,0,0,0,4.3,3.3c8.1,3.3,13.3,12.4,12.6,22-.3,5.3-2.8,10.6-4.2,9.2-.4-.4-.5-.1-.2.7.6,1.7-3.6,7-5.6,7a6.972,6.972,0,0,0-3.2,1.5c-2.6,2-12.8,2-16.7,0-4.9-2.6-5.2-1.5-4.4,11.9.5,6.6.8,15.7.7,20.1,0,4.4-.1,10.4-.1,13.2,0,2.9-.5,6.2-1.1,7.3-1.3,2.4.3,6.2,2.4,5.4,1-.4,1.2.2.9,2a4.515,4.515,0,0,0,1.1,4.1,5.463,5.463,0,0,1,1.6,3.1,19.4,19.4,0,0,0,2,5.4c2.3,4.5,2.5,9.8.9,20.3-1.1,6.9-4.7,15.8-6.9,17.2-2,1.2-3.2,5.7-1.8,6.6.7.4.9,1.1.5,1.6-.5.4-1.2.1-1.8-.7-.8-1.3-1.2-1.2-2.4.5-.8,1.1-1.9,2.5-2.5,3.2a5.223,5.223,0,0,0-1,2.2c0,.6-.7.8-1.5.5-.9-.4-3.1.7-5.3,2.6a119.93,119.93,0,0,1-9.9,7.1c-3.5,2.1-6.3,4.5-6.3,5.4,0,1.7-2.3,2-5.1.5-1.4-.8-2.5-.7-4.1.4a42.078,42.078,0,0,1-7.5,2.6c-2.9.7-5.3,1.6-5.3,2.2s-3.2.8-7.7.7a107.2,107.2,0,0,0-13.3.5c-3,.4-5.7.5-6,.2Zm17.4-6.1c6-.8,11.1-1.7,11.5-2.1.3-.4-.7-.4-2.4,0-1.6.4-10.4,1-19.5,1.4-10.6.4-15.1.9-12.5,1.3,6.7,1,11.5.9,22.9-.6ZM183.5,338a26.924,26.924,0,0,0-5-.8l-2-.1,2,.9a14.975,14.975,0,0,0,5,.8h3Zm36-7.8c14.4-3.1,23.3-6.8,29.5-12.3,2.3-2,5.2-4,6.6-4.3,3.3-.9,9.2-7.3,10.3-11.3a20.524,20.524,0,0,1,3-5.9c1.7-2.2,2.1-4.1,2.1-10.2,0-7.3-1.6-14.2-3.2-14.2-.4,0-.8-.8-.8-1.7,0-2-4.7-9.2-7.3-11.2a78.356,78.356,0,0,1-6-5.3c-6.7-6.2-26.1-14.3-27.9-11.6-.5,1-1,.9-2-.5-1.5-2.1-21.2-4.9-29.9-4.2-6.7.5-24.3,3.9-28.4,5.5-2.7,1-2.8,1.3-1.3,2.4,1.8,1.4,1.4,2.6-.9,2.6a1.442,1.442,0,0,1-1.3-1.5,1.453,1.453,0,0,0-1.4-1.5c-2,0-2.9,1.7-1.5,2.6.8.4.7.9-.2,1.5-2,1.3-2.9,1.1-2.9-.6,0-.8-.4-1.5-.9-1.5-1.8,0-12.7,8.8-17.7,14.2-6.6,7.2-11,19.2-10,27,1.4,10.6,11.4,25.8,16.9,25.8,1.4,0,3.2,1.2,4.5,3,7.8,10.6,47.8,18,70.7,13.2Zm-96.6-44.9c-.1-6-.4-8-.9-6.3-1.4,4.3-.9,15,.6,15C122.8,294,123,290.1,122.9,285.3Zm156.2-4.6c-.8-3.7-.9-3.1-.9,4.8,0,8.4.1,8.7,1,4.2A24.594,24.594,0,0,0,279.1,280.7ZM134.5,252c-1.4-.4-2.2-1.8-2.7-4.5-2.4-13.7,1-50,7.8-84.4,1.4-6.8,2.2-12.6,1.9-12.9s-.5.2-.5,1c0,.9-1.9,2.5-4.2,3.7-4,1.9-4.1,2.1-1.5,2.1,2.5,0,2.7.3,2.7,3.8a145.459,145.459,0,0,1-1.9,14.6c-1.7,9.6-2.3,11.2-4.8,13.2a11.1,11.1,0,0,1-4.8,2.5c-1.1.1-.4.4,1.5.8l3.5.6V200c-.1,4.1-.5,13.1-.9,20a237.14,237.14,0,0,0-.1,25.3l.7,12.7,2.7-2.7c2.5-2.7,2.5-2.8.6-3.3Zm135.9-18c.1-9.1-.3-22.2-.8-29.2l-.9-12.8h6.8l-4.5-2.4c-3.2-1.7-4.7-3.2-5.2-5.2-.5-2.1-.6-1.8-.2,1.1,3.1,25.9,3.4,30.8,3.2,47.6l-.3,18.4-3,.6c-1.6.4-2.2.7-1.2.8,1,0,2.3,1.3,2.9,2.9l1.1,2.7,1-4c.6-2.2,1.1-11.4,1.1-20.5ZM262,218.9c-.7-4.2-1.4-9.4-1.6-11.5-1.7-19.3-3.3-29.2-4.5-30-.5-.3-.9-2.7-.9-5.3a92.556,92.556,0,0,0-2-14.2,96.413,96.413,0,0,1-2-12.6c0-1.8-.4-3.3-.9-3.3s-1.1-1.2-1.3-2.6l-.3-2.6-2.8,2.6c-1.5,1.4-3.5,2.6-4.4,2.6a5.394,5.394,0,0,0-3.2,1.4c-.9.7-4.3,1.6-7.6,1.9-5.2.5-6.7.2-11.8-2.2l-5.7-2.8-3.1,2.3c-5.8,4.2-16.4,4-22.1-.6-1.4-1-2.9-1.6-3.4-1.1a49.459,49.459,0,0,1-6.2,2.9,18.306,18.306,0,0,1-10.5,1.5c-5.3-.6-12.7-3.6-12.7-5.2,0-.8-1.8-1.5-4.5-1.9-.5-.1-1,.6-1,1.6a13.722,13.722,0,0,1-.8,3.7c-1.3,3.8-4.9,25-5.1,29.8,0,2.8-.7,5.1-1.5,5.6a2.239,2.239,0,0,0-.9,2.2,4.309,4.309,0,0,1-.4,3.1c-.5,1-1.1,5.4-1.4,9.9s-1,9.3-1.6,10.8c-1.4,3.6-2.2,35.7-.9,36.5.6.4,2.7-.4,4.8-1.6a133.946,133.946,0,0,1,17.8-8.4c1.8-.6,1.7-.8-.8-1.3l-2.8-.6,3.1-1.4c2.5-1,3.7-1.1,5.7-.2a5.259,5.259,0,0,0,3.5.5,8.7,8.7,0,0,1,3.3-.9c1.2-.2,4.6-.8,7.6-1.4,6.6-1.3,15.6-2.5,18.9-2.4,11.2.1,19,.9,22,2.1a34.269,34.269,0,0,0,9.7,1.6c3.5.1,6.3.5,6.2,1-.1,1.3,2.3,2.6,4.7,2.6a6.413,6.413,0,0,1,3.9,2c1.9,2.1,7.5,2.8,7.5,1,0-.5.7-1,1.5-1,1.8,0,2,2.7.3,3.3-.8.2.2,1.3,2.2,2.5,2.2,1.4,3.7,1.8,4.1,1.1.3-.6,1,0,1.5,1.3,1.4,3.9,1.7-13.8.4-22.3Zm-79.1,14.5c1-.9-5.6-.3-6.9.7-1.1.7-.4.8,2.5.3A24.394,24.394,0,0,0,182.9,233.4Zm42.1.6a20.393,20.393,0,0,0-4.5-.8c-1.6,0-1.5.2.5.8a20.393,20.393,0,0,0,4.5.8C227.1,234.8,227,234.6,225,234Zm-10.5-2c-2.5-1.1-23.9-1.1-28,0-1.8.4,3.9.8,13.5.8C210,232.8,215.7,232.5,214.5,232Zm-89.7-32.2c.4-2.1-2.7-2.4-6-.7-1.7.9-1.8,1.3-.7,2C120.3,202.5,124.4,201.7,124.8,199.8Zm167-4.5a13.39,13.39,0,0,0-4,0c-1.3.2-.5.4,1.7.4C291.7,195.8,292.7,195.6,291.8,195.3ZM116.3,186c8.9-1.9,11.6-4.9,12.3-13.4.3-2.8.7-6.1,1-7.3.7-3.3-2-2.9-13.1,2.2-1.6.7-5.2,2.1-7.9,3-4.5,1.7-4.8,1.9-4.2,4.7.5,2.4.2,3.1-1.4,3.5-2.8.7-2.5,2.4,1.1,6.1,2.2,2.2,3.8,3,5.3,2.7,1.1-.3,4.3-.9,6.9-1.5Zm174.8,1c2.3,0,5.9-5.4,5.9-8.8a2.713,2.713,0,0,0-1.9-2.9c-1.3-.3-1.7-1.1-1.4-2.4.4-1.5,0-1.9-2-1.9-1.4,0-2.7.5-2.9,1.2-.3.7-1,.8-1.7.4-1.1-.7-1.1-1,0-1.7,1-.6.9-.9-.6-1.4a39.662,39.662,0,0,1-5-2c-6.2-2.8-12.6-4.8-13.2-4.1-.4.4-.2,3.3.5,6.4a53.4,53.4,0,0,1,1.2,7.8,7.19,7.19,0,0,0,1.3,3.7c1.4,2,14.5,6.8,16.5,6.1a15.682,15.682,0,0,1,3.3-.4ZM96.9,179.8c0-4.5-.2-4.9-1-2.9-.9,2.2-.4,8.1.7,8.1.2,0,.4-2.4.3-5.2ZM264.5,175c-.4-2.3-.9-3.9-1.2-3.6-.3.2-.2,2.3.2,4.6s.9,3.9,1.2,3.6C265,179.4,264.9,177.3,264.5,175Zm1.5-18,3.5-.6-3.7-.7a10.1,10.1,0,0,1-5.4-3c-1.6-2.2-1.6-2.2-1,.8.4,1.7,1,5,1.4,7.5l.6,4.5.6-4C262.5,157.8,262.8,157.5,266,157ZM144.5,139.1c.4-1.5,0-1.7-2.5-1.3-2.8.4-3,.6-1.5,2.1a11.721,11.721,0,0,1,1.6,5.7l.1,3.9.9-4.4A55.736,55.736,0,0,1,144.5,139.1Zm117-.2c1.6-.6,1.4-.8-1.2-.8-2.5-.1-3.4-.7-4.2-2.8-1-2.5-1.1-2.6-.6-.3.3,1.4,1.1,5.2,1.8,8.5l1.2,6,.5-4.9c.4-3.7,1-5.1,2.5-5.7Zm-86.5.5c0-.2-1.9-.4-4.2-.3-3.5.1-3.8.2-1.8.8C171.3,140.6,175,140.3,175,139.4Zm28.5.6c1.5-.6.9-.9-2.5-.9s-4,.3-2.5.9a11.042,11.042,0,0,0,2.5.9A11.042,11.042,0,0,0,203.5,140Zm29,0c1.5-.6.9-.9-2.5-.9s-4,.3-2.5.9a11.042,11.042,0,0,0,2.5.9A11.042,11.042,0,0,0,232.5,140ZM189,135.3c0-1.8-1.3-5.3-1.9-5.3-.4,0-1.2,1.4-1.8,3-1.1,2.8-1,3,1.3,3C187.9,136,189,135.7,189,135.3Zm26.2-2.8c-.5-3.1-2.2-4.4-2.2-1.8a4.767,4.767,0,0,1-1.2,3.1c-.9.9-.6,1.2,1.4,1.2C215.4,135,215.7,134.6,215.2,132.5Zm19-3.4a6.072,6.072,0,0,1,3.3-2.2c2.6-.5,4.7-4.7,4.1-8.4-.3-1.6-.2-2.4.1-1.7,1,2.5,2.1.1,1.3-3.1a21.444,21.444,0,0,1-.2-6.7c.4-3,.3-3.3-1.7-2.7-1.1.3-2.1.1-2.1-.4s.7-.9,1.5-.9c3.5,0-.6-7.4-6.2-11.3-6.9-4.7-12-5.7-18.2-3.6-2.5.9-3,1.5-2.5,3.1.5,1.8.3,1.9-2.4,1.3-2.1-.4-3.3-.2-3.9.8-1.8,3.2-10.3,5.1-11.8,2.7-.3-.5-1.7-1-3.1-1-1.3,0-2.4-.5-2.4-1,0-.6-.8-1.4-1.7-1.7a17.831,17.831,0,0,1-4.3-3c-4.5-4.1-15.8-2-21.5,4-3.2,3.4-7.8,13.1-7.6,16,.1.9.1,2.7.2,4,.3,5.9,4.3,13.7,8.5,16.6,2.8,2,4.1,2.2,8.1,1.6,4.6-.7,7.2-2.6,7.3-5.4.1-4.4,8.4-7,11.2-3.5.7.9,2.3,2.6,3.6,3.9,1.2,1.2,2.2,2.7,2.2,3.3,0,1.6,5,2.4,6.7,1.1a19.41,19.41,0,0,0,3.3-5c2-3.8,3.6-4.9,7.3-4.9,2.6,0,5.7,2.8,5.7,5.1,0,1.9,2.3,3.6,7.5,5.4,3.3,1.3,5.7.5,7.7-2.4Zm19.2-2.6a32.4,32.4,0,0,1-1.4-9.2,66.861,66.861,0,0,0-.8-9.8c-.5-3.2-.8-1.8-1.2,7-.3,6.1-.9,11.8-1.4,12.7-.6,1.3-.1,1.7,2.6,2.1,1.8.2,3.4.5,3.5.5a31.6,31.6,0,0,0-1.3-3.3Zm9.4.1c.3-2.1.7-2.6,2.3-2.1,1.1.4,1.9.2,1.9-.5,0-.6,1.1-2.6,2.5-4.4s2.5-3.7,2.5-4.2a9.973,9.973,0,0,1,2-3.4,9.052,9.052,0,0,0,2-4.3,9.219,9.219,0,0,1,1.6-4.2,8.776,8.776,0,0,0,1.2-5.5c-.3-1.6.1-3.1.7-3.4,1.4-.5,4.5-9.9,4.5-13.6a10.234,10.234,0,0,0-2-5.3,9.486,9.486,0,0,1-2-3.6c0-1.9,1.6-1.2,3,1.4,1.6,2.9,2.6,2.5,3.5-1.5.6-2.7-1.2-9-2.5-9-.3,0-1.4,1.6-2.4,3.4a25.524,25.524,0,0,1-4.2,5.7c-1.3,1.2-2.4,3-2.4,3.9,0,.8-4.3,6-9.5,11.3l-9.6,9.8.6,10.7c.7,11,3.2,22.4,5,21.9.6-.2,1.1-1.6,1.3-3.1Zm-110.4.7c-.5-1-1.1-6.7-1.4-12.8-.6-12.5-2-11-2,2.2,0,4.5-.4,8.5-1,8.8-2.2,1.4-1,3.5,2.1,3.5,2.6,0,3-.3,2.3-1.7Zm-13.2-3.7a10.556,10.556,0,0,0,2.7-7.3c-.1-2.1.2-7.2.5-11.3l.7-7.5-7-7.3c-3.9-3.9-7.1-6.9-7.1-6.5-.1.5-.7-.7-1.5-2.6-1.1-2.5-2-3.2-3.4-2.8-1.4.3-1.7,0-1.4-1.4.7-2.7-3.3-7.8-5.7-7.2-1.7.5-1.8.1-1.3-3.1.5-2.9.3-3.6-1.1-3.6-1,0-1.4.5-1.1,1a2.452,2.452,0,0,1-.5,2.5c-1.4,1.6-.4,7.5,1.2,7.5.7,0,.8,1.4.5,3.6a16.136,16.136,0,0,0,.7,7.2c.8,2.1,1.7,4.6,2.2,5.7a29.387,29.387,0,0,1,1,5,31.069,31.069,0,0,0,2.3,7.8,27,27,0,0,1,2.1,6.2,2.2,2.2,0,0,0,1.3,1.8c.7.2,2.1,2.2,3.2,4.3,2.2,4.2,7.5,11.4,8.4,11.4.3,0,1.8-1.5,3.3-3.4Zm111-26.8c.4-3.4.2-3.8-1.9-3.8-2.3,0-2.3.1-.8,3a14.64,14.64,0,0,1,1.6,5.2c.2,2.7.6.8,1.1-4.4Zm-96.3-1.6c1.1-2.1,1-2.2-2.1-2.2-2.5,0-2.9.3-2,1.2.7.7,1.2,2.8,1.3,4.8.1,3.2.1,3.3.8.9a51.065,51.065,0,0,1,2-4.7Zm27.4-13.4c-1.5-.7-3.3-.7-6,0-3.8,1-3.7,1,2.2,1C182.4,82.9,183.1,82.7,181.3,81.8Zm43.9,0c-2.3-.8-3.9-.8-5.5,0-1.9.9-1.3,1.1,3.3,1C228.3,82.8,228.4,82.7,225.2,81.8ZM108.4,77.6c-.3-2.1-.8-3.5-1.1-3.2-.2.2-.1,2,.3,4,.3,2.1.8,3.5,1.1,3.2C108.9,81.4,108.8,79.6,108.4,77.6ZM107,68.3c0-2.7-.4-4.3-.8-3.6-.8,1.2-.4,8.3.4,8.3.2,0,.4-2.1.4-4.7Zm187.7-2.5c-.2-1.3-.4-.3-.4,2.2s.2,3.5.4,2.3A16.944,16.944,0,0,0,294.7,65.8ZM117,58c0-.5-.6-1-1.4-1a2.817,2.817,0,0,0-2.1,1c-.3.6.3,1,1.4,1C116.1,59,117,58.6,117,58Z" fill="#6a9ce9"/>
          <path id="Path_901" data-name="Path 901" d="M259,304.6c0-2.1,2-3,3.3-1.7.9.9.8,1.4-.3,2.1C259.9,306.4,259,306.2,259,304.6Z" fill="#6a9ce9"/>
          <path id="Path_902" data-name="Path 902" d="M169,284.2a35.425,35.425,0,0,1-6.8-4.6c-3-2.7-3.2-3.4-3.2-9.2,0-7.1,1.7-9.7,8.2-12.7,6.9-3.2,12.5-1.6,17.1,5,3.9,5.6,3.7,11.1-.5,15.8-2.5,2.9-9.7,7.8-11,7.4a39.974,39.974,0,0,1-3.8-1.7Zm8-5.8c0-.2-1.5-.4-3.2-.4-2.3,0-2.9.3-1.9.9,1.2.8,5.1.4,5.1-.5Zm4.1-9.1c-.9-1.5-1-1.2-1,1.7s.1,3.2,1,1.8A3.178,3.178,0,0,0,181.1,269.3Z" fill="#6a9ce9"/>
          <path id="Path_903" data-name="Path 903" d="M225,284.2c0-.6-.8-.8-1.8-.5-2.1.5-9.3-4.9-10.5-8-1.2-3.2,0-10.4,2.4-14.3a7.382,7.382,0,0,1,5.7-4c2-.4,4-1.1,4.3-1.7.4-.6,2.4-.1,5.3,1.2,2.8,1.4,5.4,2,6.8,1.6,1.6-.4,1.9-.4.9.3-1.1.8-1.1,1.7.4,5.6,2.1,5.5,1.6,10.4-1.7,15.1a9.483,9.483,0,0,1-4.8,3.9c-1.4.3-3.5.8-4.7,1.2-1.3.4-2.3.2-2.3-.4ZM235,271a3.073,3.073,0,0,0-1-2.5c-.6-.4-1,.7-1,2.5s.4,2.9,1,2.5A3.073,3.073,0,0,0,235,271Z" fill="#6a9ce9"/>
          <path id="Path_904" data-name="Path 904" d="M134,270.5c0-1.2,4.2-6.6,4.7-6.1.3.3-.6,1.9-2.1,3.6-1.4,1.7-2.6,2.9-2.6,2.5Z" fill="#6a9ce9"/>
          <path id="Path_905" data-name="Path 905" d="M183.7,259.4c-.8-.8.1-2.4,1.4-2.4.5,0,.9.7.9,1.5,0,1.5-1.2,2-2.3.9Z" fill="#6a9ce9"/>
          <path id="Path_906" data-name="Path 906" d="M150.2,252.8c.6-1.8,2.8-2.1,2.8-.4a1.58,1.58,0,0,1-1.6,1.6c-.9,0-1.4-.5-1.2-1.2Z" fill="#6a9ce9"/>
          <path id="Path_907" data-name="Path 907" d="M233,247c2-1.3,4.3-1.3,3.5,0-.3.6-1.6,1-2.8,1C231.9,248,231.8,247.8,233,247Z" fill="#6a9ce9"/>
          <path id="Path_908" data-name="Path 908" d="M242.7,230.4c-1.1-1.1.3-2.4,2.4-2.4,1.2,0,1.9.5,1.7,1.3-.5,1.4-3.1,2.1-4.1,1.1Z" fill="#6a9ce9"/>
          <path id="Path_909" data-name="Path 909" d="M176.3,200.3c.4-.6-.8-2.4-2.6-4a20.206,20.206,0,0,1-4-4.6c-1-2.7-2.5-2-5.1,2.2-3.8,6-8.7,6.6-12,1.6-1.2-1.9-1.4-3-.6-4.4a11.3,11.3,0,0,0,1-3.8c.1-1,2.3-3.5,4.9-5.5,4.1-3.2,5.7-3.8,9.6-3.8,13.1,0,22.5,12.6,14.2,19.1-4.3,3.4-6.2,4.5-5.4,3.2Z" fill="#6a9ce9"/>
          <path id="Path_910" data-name="Path 910" d="M217.7,199.3a22.313,22.313,0,0,0-2.8-4.5l-2.2-2.7,2.4-4.8a14.032,14.032,0,0,1,7-7c4.3-2.2,16.3-3.7,15.2-2-.3.4.9,1.3,2.5,1.9,4,1.6,7.4,7.6,7,12.5-.3,3.2-.9,4.1-3.8,5.5l-3.5,1.7-3.1-3.4c-1.7-1.9-3.6-3.5-4.3-3.5a1.028,1.028,0,0,1-1.1-1c0-1.5-1.8-1.2-3.2.6-.7.9-2.3,2.7-3.6,4.1-1.2,1.3-2,2.9-1.7,3.4.4.5-.5.9-1.8.9a2.954,2.954,0,0,1-3-1.7ZM234,186c-2-1.3-4.7-1.3-5.5,0-.4.6.9,1,3.2,1C234.5,187,235.1,186.7,234,186Z" fill="#6a9ce9"/>
          <path id="Path_911" data-name="Path 911" d="M247,145.1a10.222,10.222,0,0,0-.7-2.8c-.6-1.6-.5-1.6,1-.4,1.9,1.5,2.3,4.1.7,4.1a.987.987,0,0,1-1-.9Z" fill="#6a9ce9"/>
          <path id="Path_912" data-name="Path 912" d="M111,184.5c-1-1.2-1-1.5.3-1.5a2.675,2.675,0,0,1,2.1,1.5c.3.8.2,1.5-.3,1.5A4.12,4.12,0,0,1,111,184.5Z" fill="#6a9ce9"/>
          <path id="Path_913" data-name="Path 913" d="M173,128c0-.5.7-1,1.5-1s1.5.5,1.5,1c0,.6-.7,1-1.5,1S173,128.6,173,128Z" fill="#6a9ce9"/>
          <path id="Path_914" data-name="Path 914" d="M262,94.2a4.176,4.176,0,0,1,1.6-2.3c1.4-1.2,1.6-1.1,1.3.5C264.5,94.4,262,95.9,262,94.2Z" fill="#6a9ce9"/>
          <path id="Path_915" data-name="Path 915" d="M235,342.4c-1-1.1-.9-1.4.8-1.4,2.5,0,3.7,1.6,1.8,2.3A2.487,2.487,0,0,1,235,342.4Z" fill="#6a9ce9"/>
          <path id="Path_916" data-name="Path 916" d="M117,261.1c0-2,1.3-3.5,2.3-2.5.7.8-.4,4.4-1.4,4.4C117.4,263,117,262.1,117,261.1Z" fill="#6a9ce9"/>
          <path id="Path_917" data-name="Path 917" d="M281.6,139.6c.3-.9,1.1-1.6,1.6-1.6,1.3,0,.5,2.3-1,2.8C281.5,141,281.2,140.6,281.6,139.6Z" fill="#6a9ce9"/>
          <path id="Path_918" data-name="Path 918" d="M221.6,72.3c-2.9-.8-.1-2,3.4-1.5,1.6.2,2.7.8,2.4,1.3-.5.9-2.6,1-5.8.2Z" fill="#6a9ce9"/>
          <path id="Path_919" data-name="Path 919" d="M257,71.2c0-.5.7-1.3,1.6-1.6,1-.4,1.4-.1,1.2.6-.5,1.5-2.8,2.3-2.8,1Z" fill="#6a9ce9"/>
          <path id="Path_920" data-name="Path 920" d="M257.2,63.9a1.345,1.345,0,0,1,2.6,0c.2.6-.4,1.1-1.3,1.1S257,64.5,257.2,63.9Z" fill="#6a9ce9"/>
        </g>
        <g id="Group_906" data-name="Group 906">
          <path id="Path_921" data-name="Path 921" d="M184,342.6c-4.1-.7-10.4-2.1-14-3-7.3-1.9-24-9.5-24-10.8,0-.5-.5-.6-1.1-.2-1.5.9-20.3-18.6-21.8-22.7-.8-1.9-2-5-2.9-6.9-2.2-4.7-2.7-15.9-1.2-23.1a53.95,53.95,0,0,1,5-12.3l3.8-6.4-.5-16.9a243.256,243.256,0,0,1,.7-30.2c.7-8.3.8-13.7.3-14.2-.6-.6-2.8-.3-5.9.7-5.5,1.9-15.5,2.7-18.8,1.4-3.2-1.2-8.6-6.8-10.2-10.6a20.956,20.956,0,0,1,0-14.8c1.8-4.4,6.8-9.4,10.3-10.2a15.4,15.4,0,0,0,3.8-1.4,16.927,16.927,0,0,1,4-1.5,36.238,36.238,0,0,0,6.8-2.3,13.738,13.738,0,0,1,4.2-1.2,2.328,2.328,0,0,0,2-1,3.763,3.763,0,0,1,2.7-1c3.9,0,10.6-3.9,11.2-6.6.6-2.2-.4-3.6-7.2-10.2-4.3-4.2-8.6-9-9.5-10.7-9.6-17.9-13.9-29.5-17.6-48.2-3-14.4-2.9-14.9,2.5-20,4-3.6,5.3-4.3,8.8-4.3,3.6,0,4.6.6,8.6,4.9a67.678,67.678,0,0,1,6.5,7.9C136.2,75.7,148.9,90,151,90c.6,0,2.4-1.3,3.8-2.8,3.3-3.4,8-5.9,14.7-7.8,6.9-1.9,12.7-1.7,17.7.5,2.4,1.1,6,2.7,8,3.5,2,.9,4,2.1,4.4,2.7.4.7,1.2.6,2.2-.3a46.027,46.027,0,0,1,13.3-6.7c9.2-2.9,22.7.7,30.5,8.1,2.7,2.5,3.4,2.8,5,1.7,2.5-1.6,15.6-16.3,21.7-24.5C277.4,57.7,282,54,285.4,54c4.2,0,10.8,4.2,12.3,7.9,1.4,3.2,1.4,4.5-.1,12.6-.9,5-2.1,10.4-2.6,12-.5,1.7-1.9,6.6-3,11-2.4,8.7-9.9,25.3-12.4,27.4a4.6,4.6,0,0,0-1.6,2.7c0,1.6-11.8,13.7-14.2,14.7a3.174,3.174,0,0,0-1.8,2.9c0,4,2.6,6.5,8.2,7.8a32.369,32.369,0,0,1,7.3,2.6,8.053,8.053,0,0,0,4,1.4,8.226,8.226,0,0,1,4.1,1.5,7.9,7.9,0,0,0,4.1,1.5c1.2,0,2.5.4,2.8,1a3.851,3.851,0,0,0,2.8,1c2.8,0,9,5.5,11.2,9.8,3.8,7.6,1,18-6.3,23.7-3.9,3-5.3,3.5-9.9,3.5a44.15,44.15,0,0,1-11.4-2c-3.4-1.2-6.4-1.8-6.7-1.5s0,6.1.6,12.8c1.7,16.7,1.6,21.7-.3,21.7q-1.5,0-1.5,3t1.5,3c1.7,0,2,7.8.6,16.2-.6,3.9-.4,5.3,1.1,7.5,1,1.6,3.3,5.7,5.1,9.3,2.8,5.9,3.1,7.4,3.1,16,0,13.7-2.1,19.2-11,29.3-9.7,10.8-21.9,19.7-27.2,19.7a4.3,4.3,0,0,0-3.1,1.4c-1.6,2-12.8,5.3-22.7,6.9-10.7,1.7-25.2,1.8-34.4.3Zm33-8.1c11.5-2,15.7-3,20.8-4.9,5.7-2.1,12.5-5.8,13.5-7.3A2.558,2.558,0,0,1,253,321c1.2,0,5.4-3.6,11.6-10,12.3-12.4,13.8-30.8,3.8-45.7-2.4-3.6-4.4-7-4.4-7.5s-.8-1.2-1.7-1.5a58.442,58.442,0,0,1-7.4-4.9c-3.1-2.4-5.9-4-6.3-3.7-.3.4-.6.1-.6-.5,0-.7-.8-1.2-1.8-1.2a4.915,4.915,0,0,1-2.8-.9c-1.5-1.5-15-6-22.7-7.6-11.6-2.4-31-2-44.1,1-12.4,2.8-20.7,6.4-31.6,13.5-9.1,6-12.1,9.7-16.1,19.6-2.7,6.8-3.1,8.6-2.7,15.9.2,6.8.8,9.2,3.6,14.6,3.3,6.6,13.3,17.9,15.8,17.9.8,0,1.4.3,1.4.8,0,.8.7,1.2,10.6,6,11.1,5.5,11.5,5.6,23.9,7.3a46.783,46.783,0,0,1,7.4,1.4c1,1.1,20.2.4,28.1-1ZM140.3,246a46.359,46.359,0,0,0,6.6-3.9,112.745,112.745,0,0,1,25.6-10.9c9.1-2.5,18.6-3.4,31.5-2.9,14.5.5,23.1,1.8,27.6,4.2a15.1,15.1,0,0,0,5.7,1.5c1.5,0,2.7.4,2.7.9s1.5,1.4,3.3,2.1c6.2,2.3,11.7,5.2,11.7,6.1,0,.5.9.9,2,.9s2,.4,2,.8c0,1.1,5.6,4.3,6.4,3.5.3-.3.6-7.6.6-16.2a274.192,274.192,0,0,0-4-45.6c-.6-3.3-1.5-8.5-2.1-11.5-1.2-7.5-2.3-12.6-4.9-25-1.2-5.8-2.4-11.6-2.7-13-1-5.3-1.2-5.5-4.4-2.2-1.7,1.8-3.8,3.2-4.6,3.2a2.389,2.389,0,0,0-1.9,1.5c-.3.7-2.6,2.2-5,3.1-5.4,2.1-10.7,1.5-17.7-1.9l-5-2.6-3.4,2.6c-5,3.9-11.5,4.2-17.6.9-5.9-3.2-6.5-3.2-11.9-.3-5.3,2.7-13.6,2.9-19,.3a34.9,34.9,0,0,1-7.8-5.8c-2.7-2.7-4.1-3.6-4.4-2.7-.9,2.8-2.6,10.8-6,27.9-6.5,32.4-10.3,64.7-9.3,78.1.8,9.4,1.3,10.6,3.6,8.5a6.306,6.306,0,0,1,2.4-1.6Zm-19.8-56.6c9.8-3.7,10.4-4.6,12.6-17.3,1.1-6.3,1.8-11.6,1.5-11.8-.4-.4-8.3,2.1-26.4,8.5-6.4,2.3-8.1,4.4-8.2,9.9,0,5.8,1.4,9,5.2,11.3,3.8,2.4,7.7,2.2,15.3-.6Zm173.3,1.2c4.5-2.3,6.3-5.1,6.5-9.9.3-6.4-2.4-9.6-10.4-12.6-3.5-1.3-6.6-2.7-6.9-3.1a2.916,2.916,0,0,0-2.1-.7,43.257,43.257,0,0,1-8.2-2.3c-3.7-1.3-6.9-2.1-7.2-1.8s.1,3.4.9,6.9c.7,3.5,1.7,8.8,2.1,11.7.8,5.7,1.1,6,12,10.9,5.8,2.6,9.5,2.8,13.3.9ZM178,134.7a11.467,11.467,0,0,0,4.2-4.7c2.6-5.1,4.7-6.4,7-4.4a9.817,9.817,0,0,1,2.3,4.8c.7,3.6,4.1,5.6,9.6,5.6,3,0,4.1-.6,6.2-3.3a19.1,19.1,0,0,0,2.8-5.1c.7-3.2,3.5-4.3,5.8-2.2a6.051,6.051,0,0,1,2.1,3.5c.1,3.9,5.2,7.1,11.3,7.1,5.6,0,9.9-2.8,14.5-9.5l3.4-5-.4-9.6c-.4-7.9-.9-10.4-3.2-14.5C239.6,90,232.1,86,222.2,86c-4.8,0-18.9,6.1-19.9,8.6-.8,2.1-2.4,1.7-7-2-8.5-6.7-19.4-8.4-28.3-4.4-1.9.9-4.2,1.8-5.1,2.1s-2.8,3.1-4.4,6.4c-2.3,4.7-2.9,7.6-3.3,14.8-.4,7.8-.1,9.7,1.7,13.5a26.1,26.1,0,0,0,6.3,7.8c3.2,2.6,4.9,3.2,8.7,3.2a19.563,19.563,0,0,0,7.1-1.3Zm-35.1-5.9c.9-3.1,1.9-6,2.4-6.4.4-.4.7-4.4.7-8.9s.5-9.7,1.1-11.4c1.1-3,.9-3.5-1.8-6.4a20.058,20.058,0,0,1-3.6-4.9,2.673,2.673,0,0,0-2.1-1.8c-1.5,0-14.6-15.6-19-22.8-2.4-3.8-3.1-4.3-5.8-4-4.7.5-5.4,2.5-3.9,10.5,5.2,26.6,13.8,47.7,23.2,57.1,2.9,2.9,5.7,5.1,6.3,4.9.5-.2,1.7-2.8,2.5-5.9Zm124.3.9a78.268,78.268,0,0,0,6.3-9.2c1.6-2.7,3.2-5.2,3.5-5.5,2.3-2,11-30.4,13-42.2,1.4-8.7.7-10.8-3.8-10.8-2.5,0-6.2,2.5-6.2,4.1,0,1.7-6.3,10-11,14.5-2.8,2.6-5,5.3-5,6s-2.5,3.5-5.6,6.3L252.8,98l1.1,5.1a59.415,59.415,0,0,1,1.1,10.6,46.242,46.242,0,0,0,2.6,13.3c3,9,4,9.3,9.6,2.7Z" fill="#fff"/>
          <path id="Path_922" data-name="Path 922" d="M166.5,279.8a12.289,12.289,0,0,1-4.1-7.5c-.6-4-.4-4.5,3.4-8.3,2.9-2.9,4.8-4,7-4,3.5,0,9.8,3.4,11.2,6,1.7,3.2,1.2,8.8-1,11a7.165,7.165,0,0,0-2,3c0,1.4-4.4,3-8.1,3-1.9,0-4.1-1.1-6.4-3.2Zm10.1-7.4c.8-3.1-.6-4.7-3.7-4.2a3.414,3.414,0,0,0,.5,6.8c1.9,0,2.7-.7,3.2-2.6Z" fill="#fff"/>
          <path id="Path_923" data-name="Path 923" d="M222.6,281.8a21.535,21.535,0,0,1-4.3-3.6C214,273.6,216,262,221,262a3.073,3.073,0,0,0,2.5-1c.9-1.4,5.2-1.2,8.3.4,4.7,2.4,6.4,5.1,6.4,9.8-.1,3.7-.6,4.8-4.1,8-4.2,4-7.8,4.8-11.5,2.6Zm7.2-10.5c.3-2.9,0-3.3-2.1-3.3-3.5,0-5.2,2.3-3.7,5C225.8,276.4,229.4,275.3,229.8,271.3Z" fill="#fff"/>
          <path id="Path_924" data-name="Path 924" d="M176.3,193.6c-1.7-2.1-3.8-3.5-5.3-3.6-5.5-.4-7.2,0-7.7,2-.6,2.4-4.8,3.7-6.7,2.1-1.4-1.2-1.1-5.1.4-5.1.4,0,1-.9,1.3-2a3.9,3.9,0,0,1,2.4-2.6,46.437,46.437,0,0,0,4.9-2c4.2-1.8,9.8-.2,14.1,4.1,3.6,3.6,4.2,6.5,1.7,8.9-2,2.1-1.8,2.2-5.1-1.8Z" fill="#fff"/>
          <path id="Path_925" data-name="Path 925" d="M219.2,194.9c-2.8-2.2-2.7-2.8.2-6.8,5.9-7.9,15.3-8.6,22.3-1.6,3.8,3.8,4.1,5.7,1.4,8.6l-1.9,2.1-2.8-3.6c-2.5-3.1-3.5-3.6-7-3.6s-4.7.6-7.1,3.3c-2.9,3.3-3,3.3-5.1,1.6Z" fill="#fff"/>
        </g>
        <g id="Group_907" data-name="Group 907">
          <path id="Path_928" data-name="Path 928" d="M142,323.9c-4.7-1.9-10.4-8.9-7.2-8.9,1.8,0,6.2,2.6,6.2,3.6,0,.7,1.1,1.5,2.5,1.8,1.6.4,2.5,1.3,2.5,2.6C146,325.2,145.6,325.3,142,323.9Z" fill="#fff"/>
          <path id="Path_931" data-name="Path 931" d="M130.5,314c-.8-1.3.4-3.2,1.6-2.5,1.2.8,1.2,3.5,0,3.5A1.9,1.9,0,0,1,130.5,314Z" fill="#fff"/>
          <path id="Path_932" data-name="Path 932" d="M126.7,309.5a4,4,0,0,1-1.7-2.4,2.136,2.136,0,0,0-1.4-1.7,2.459,2.459,0,0,1-1.4-2.2,54.084,54.084,0,0,0-1.7-7.7c-1.3-4.6-1.5-7.8-1-14,.4-4.4.8-8.8.8-9.7.1-.9.5-1.4.9-1.2.4.3,1.3-.7,1.8-2.1,1-2.6,3-2.6,3,.1,0,.8.4,1.4.9,1.4s.8,1.1.7,2.3c-.1,1.7-.6,2.3-1.8,1.9-2-.5-3.7,2.6-2.1,3.7a5.863,5.863,0,0,1,1.6,2.4c.5,1.2.1,1.7-1.3,1.7-1.8,0-2,.7-2,5.5a21.164,21.164,0,0,0,2,9.5,18.042,18.042,0,0,1,2,6c0,1.1.4,2,.9,2,1.2,0,4.1,2.8,4.1,4,0,1.5-2.6,1.8-4.3.5Z" fill="#fff"/>
          <path id="Path_933" data-name="Path 933" d="M178,281c0-.5-1.4-1.3-3.2-1.8-4.6-1.2-4.5-2.8.1-3.6,3.9-.6,4-.6,3-3.9-1.3-4.4-.2-8.7,2.1-8.7,1.9,0,5,3.5,5,5.5,0,.5-.5.2-1.1-.7-1.2-2.2-2.5-2.3-3.3-.2-.9,2.3.4,6.4,2,6.4,2,0,1.7,1.7-.7,5.1-2,2.9-3.9,3.8-3.9,1.9Z" fill="#f5ca59"/>
          <path id="Path_934" data-name="Path 934" d="M165.7,279.4c-1.1-1.1-.8-5.2.4-6a2.386,2.386,0,0,1,2.4.7c1.2,1.2,1.1,1.8-.3,3.7-1,1.3-2.1,2-2.5,1.6Z" fill="#f5ca59"/>
          <path id="Path_935" data-name="Path 935" d="M217.9,277.7A6.608,6.608,0,0,1,216,274c0-2.4.9-2.5,2.5-.4.6.9,2.9,2.2,5,3,3.6,1.2,4,1.2,5.4-.9,2.1-3,2.7-11.7.7-11.7-2.1,0-6.7,2.6-5.9,3.3.3.4-.5.7-2,.7a4.39,4.39,0,0,0-3.6,1.8c-.9,1.4-1,1.3-1.1-1,0-2.1.5-2.8,2-2.8a1.767,1.767,0,0,0,2-1.9c0-4,9.2-4.4,12.9-.6,1.3,1.4,2.7,2.5,3.2,2.5a.987.987,0,0,1,.9,1c0,.6-.9,1-1.9,1-2.8,0-3.5,1.7-1.1,2.5,2.1.7,2.8,4.5.8,4.5-.6,0-2.2,1-3.5,2.2-3.1,2.9-11.5,3.2-14.4.5Z" fill="#f5ca59"/>
          <path id="Path_936" data-name="Path 936" d="M164,269.5c0-3.4,5.8-9.9,7.6-8.5.9.8,1.9.8,3.2.1,3-1.6,3.3-.2.9,3.4-1.9,2.9-2.3,3.1-3.3,1.7-1.1-1.5-1.4-1.5-3.3.2-1.6,1.5-1.8,2.1-.9,2.8,1,.6,1,1-.2,1.8C165.5,272.6,164,272.1,164,269.5Z" fill="#f5ca59"/>
          <path id="Path_939" data-name="Path 939" d="M266.3,235.5c0-2.2.2-3,.4-1.7a13.389,13.389,0,0,1,0,4C266.4,238.7,266.2,237.7,266.3,235.5Z" fill="#fff"/>
          <path id="Path_940" data-name="Path 940" d="M128.4,206c4.8-14.5,4.8-15.1-1.6-14.3a18.865,18.865,0,0,0-6.3,1.9c-2.5,1.8-6.5,1.8-6.5.1,0-1.4,4.7-3.7,11.7-5.6,5.2-1.4,8.5-6,7.3-10.2-.6-2-.4-3.1.5-3.9.9-.7,1.4-3.1,1.4-5.8a23.374,23.374,0,0,1,.6-6.7c.4-1.4,0-2.7-1.5-4-2-1.8-2.2-1.8-4.9-.2a13.035,13.035,0,0,1-4.9,1.7c-2.5,0-4.9,2.6-3,3.3.7.2,1,.8.6,1.2-.5.5-2.6.2-4.8-.5-3.5-1.2-4.2-1.1-5.3.2-.6.9-2.8,1.9-4.8,2.2-4,.7-8,4.1-5.7,4.9,1.7.6.9,1.4-2.5,2.2-2.4.6-2.7.5-2.7-1.9a4.047,4.047,0,0,1,2.3-3.7,28.01,28.01,0,0,0,4-2.7,7.357,7.357,0,0,1,3.5-1.8c.9-.2,6.2-1.9,11.7-3.9s12.2-4.4,14.9-5.3c5.9-2,8.1-4.9,7.2-9.7a5.936,5.936,0,0,0-3.4-4.7,5.772,5.772,0,0,1-3-3.6c-.3-1.7-.8-2.1-2.1-1.7s-2.6-.5-4.5-3c-1.5-1.9-3.1-3.3-3.5-3-.5.2-.6-.6-.4-2,.4-1.6-.2-2.9-1.6-4.1-2.2-1.9-2.8-4.4-1-4.4a15.163,15.163,0,0,1,4.4,2.3c2.5,1.7,3.1,2.7,2.4,3.4-.8.8-.5,1.4,1,2.2,1.1.6,1.8,1.7,1.5,2.4-.2.7,1.5,3.1,3.9,5.4,4,3.8,4.6,4,6.8,3A5.843,5.843,0,0,0,143,131c.4-2.7.9-3.4,2.4-3.2,1.5.3,1.8-.1,1.3-2.4a9.4,9.4,0,0,1,.3-4.8c.4-1.2.4-4.7.1-7.8-.4-3.2-.4-5.9,0-6,1.3-.5,2.2-9.8,1-9.8a1.266,1.266,0,0,1-1.1-1.4c0-.8-1.1-2.3-2.5-3.4A6.53,6.53,0,0,1,142,88c0-1.5-.5-2-1.4-1.7-1.6.6-3.6-1.1-3.6-3,0-.8-3.4-4.7-7.6-8.8-4.7-4.6-7.4-8.1-7.2-9.1.5-2.7,2.7-2.8,3.7-.2A23.248,23.248,0,0,0,130,71c9.8,10.6,13.3,14,14.7,14a.955.955,0,0,1,1,1.4c-.5,1.3,3.1,5.6,4.7,5.6.4,0,2.8-1.8,5.3-4s5.4-4,6.3-4a2.639,2.639,0,0,0,2.3-2c.5-1.8.8-1.9,3.1-.9,3.2,1.5,3.3,2.2.1,4.3-1.4.9-2.5,2.4-2.5,3.4s-.3,1.3-.8.6c-.4-.6-2-1-3.5-.9-2.2.1-3.3,1-4.5,3.4-.8,1.8-2.1,3.5-2.9,3.8-1.4.6-1.8,3.9-.4,4.5a4.893,4.893,0,0,1,1.5,2.4c.5,1.7.2,2-1.6,2-1.7-.1-2.4.5-2.6,2.2-.2,1.2.1,2.2.7,2.2s1.1.8,1.1,1.8c0,1.4.2,1.5,1,.2.6-1,.8-.4.8,2-.1,1.9-.3,2.9-.5,2.3a2.368,2.368,0,0,0-2-1.3c-1.2,0-1.4.7-.9,3.3.4,1.7.9,4.9,1.3,7,.4,2.8,1.2,4.1,2.9,4.7a4.665,4.665,0,0,1,2.6,3.2,2.76,2.76,0,0,0,2.8,2.6c5.2.6,7,1.3,7,2.8,0,2-4.2,3.5-5.5,1.9-2.8-3.4-9.8-8.8-11.8-9-1.2-.2-2.8-.5-3.6-.6a1.505,1.505,0,0,0-1.8.9c-.3.8.4,1.6,1.6,1.9,3,.8,3.1,7.3.1,7.3-2.3,0-2.6,1.5-.7,3.5.8.8,1.2,2.7.9,5.1-.3,2.2-.7,3.3-.9,2.7-.6-1.8-2.8-1.6-4.3.3-1.1,1.3-1,1.6.8,2.1,2.7.7,2.9,2.9.3,3.6-2.2.5-4.2,8.8-2.2,9.5a1.7,1.7,0,0,1-.6,3.3c-1.1,0-1.3.3-.5.6,1.7.7,1.5,4.3-.3,4.3s-2,2.6-.2,3.3c.7.4.6.6-.4.6a2.914,2.914,0,0,0-2.3,1.7c-1.1,2.9-.6,8.5.9,10.1,1.7,1.6,1.2,3.3-1.1,3.3-.8,0-1.4.4-1.4.9a10.947,10.947,0,0,1-.6,2.5c-.4,1.1-.1,1.6,1,1.6,2.9,0,1.7,3.5-1.6,4.9a13.319,13.319,0,0,0-4.1,2.5c-.5.7-.7.5-.3-.4Z" fill="#fff"/>
          <path id="Path_943" data-name="Path 943" d="M103,196c0-.5-.7-.7-1.5-.4-1,.4-1.5,0-1.5-1.4a13.553,13.553,0,0,0-.6-3.6c-.4-1.2,0-1.6,1.5-1.6,1.2,0,2.1.6,2.1,1.5,0,2,3.2,3.5,5.8,2.8,1.3-.3,2.2-.1,2.2.6,0,.6-1.2,1.3-2.7,1.7a22.685,22.685,0,0,0-4,1C103.6,196.8,103,196.5,103,196Z" fill="#fff"/>
          <path id="Path_944" data-name="Path 944" d="M178.8,196.2a15.464,15.464,0,0,0-.3-1.7,15.62,15.62,0,0,1-.4-2.7c0-1-1.9-3-4.1-4.4-3.9-2.6-4.1-2.7-8.1-1.1-3.5,1.4-4.1,1.4-4.6.1-.9-2.3.3-2.8,7.1-3.2,5.7-.4,6.6-.2,8.7,1.9,1.3,1.3,2.2,3.2,2.1,4.1a2.21,2.21,0,0,0,1.2,2.4c2,.8,2.1,4,.1,4.8-.8.3-1.6.2-1.7-.2Z" fill="#fff"/>
          <path id="Path_946" data-name="Path 946" d="M158.6,193.5a2.828,2.828,0,0,1-1.1-3.5c.9-2.9,3.7-2.1,4.2,1.2.4,3.3-.6,4.1-3.1,2.3Z" fill="#fff"/>
          <path id="Path_947" data-name="Path 947" d="M219,192.4c0-1.6,1.3-3.9,3.4-6,3-3,4-3.4,8.9-3.4,5.6,0,7.8,1.3,5.8,3.3-.7.7-2.2.7-5.2-.3-3.8-1.3-4.3-1.2-5.5.4-.7,1.1-1.1,2.2-.9,2.7.3.4-.5.9-1.7,1.1a2.8,2.8,0,0,0-2.6,2.6c-.5,3.1-2.2,2.8-2.2-.4Z" fill="#fff"/>
          <path id="Path_949" data-name="Path 949" d="M237.5,191c-.8-1.4.3-3,2.1-3,.8,0,1.4.5,1.4,1,0,.6.6,1,1.4,1a2.817,2.817,0,0,1,2.1,1c.4.6-.8,1-2.9,1C239.7,192,237.8,191.6,237.5,191Z" fill="#fff"/>
          <path id="Path_950" data-name="Path 950" d="M96.5,189c.6-1-2.9-6.3-3.6-5.6-.2.3-.5-.7-.6-2.1-.1-1.9.1-2.2.8-1.2.6.9.9,1,.9.2a2.534,2.534,0,0,0-1-1.8c-.7-.4-.7-1.2,0-2.5.8-1.5,1.3-1.7,3.5-.7,2.7,1.3,3.4,4.7,1,4.7-.8,0-1.5.5-1.5,1.1s.9.9,1.9.6c1.3-.3,2.1.1,2.3,1.2.4,2-2,7.1-3.3,7.1-.6,0-.7-.5-.4-1Z" fill="#fff"/>
        </g>
        <ellipse id="Ellipse_507" data-name="Ellipse 507" cx="47.5" cy="20" rx="47.5" ry="20" transform="translate(153 251)" fill="#6a9ce9"/>
      </g>
    </g>
    <path id="Path_1036" data-name="Path 1036" d="M10123,16143.327l.609,12.209V16169" transform="translate(602 818)" fill="none" stroke="#fff" stroke-linecap="round" stroke-width="5"/>
    <path id="Path_1038" data-name="Path 1038" d="M249.763,307.092a29.821,29.821,0,0,0,28.043-19.842h-8.069a22.155,22.155,0,0,1-19.974,12.434,22.412,22.412,0,0,1-22.355-22.355,22.155,22.155,0,0,1,12.434-19.974v-8.069a29.752,29.752,0,0,0,9.921,57.806Zm24.868-28.44a22.671,22.671,0,0,0,11.905-3.307v-6.878a19.248,19.248,0,0,1-11.773,4.1c-6.349,0-11.376-3.042-13.757-8.069H278.6l1.587-5.291H259.419a12.835,12.835,0,0,1-.132-2.249,14.378,14.378,0,0,1,.132-2.381h22.223l1.587-5.291H260.874c2.381-5.159,7.275-8.2,13.889-8.2a21.255,21.255,0,0,1,10.185,2.646l1.852-5.953A26.407,26.407,0,0,0,274.763,235c-9.921,0-17.725,5.688-20.635,14.154h-5.82l-1.587,5.027h6.349a19.529,19.529,0,0,0-.132,2.778,17.723,17.723,0,0,0,.132,2.646h-4.762l-1.587,5.027h7.54C257.038,273.1,264.71,278.652,274.631,278.652Z" transform="translate(10399.005 16757.688)" fill="#fff"/>
  </g>
</svg>
